<svg height="451pt" viewBox="0 0 451.764 451" width="451pt" xmlns="http://www.w3.org/2000/svg">
  <path d="M448.508 155.465C433.852 69.609 339.773 3.383 225.878 3.383c-113.89 0-207.972 66.226-222.624 152.082-1.86 10.887 6.707 20.797 17.84 20.797h409.574c11.129 0 19.695-9.91 17.84-20.797zm0 0" fill="#fce8cb"/>
  <path d="M451.465 154.96C436.422 66.837 339.44.384 225.879.384S15.339 66.836.297 154.96c-1.024 5.992.652 12.113 4.601 16.793a21.14 21.14 0 0 0 16.192 7.508h409.574a21.149 21.149 0 0 0 16.195-7.508c3.95-4.68 5.63-10.8 4.606-16.793zm-9.192 12.923a15.153 15.153 0 0 1-11.609 5.379H21.094a15.16 15.16 0 0 1-11.61-5.38c-2.804-3.323-4-7.667-3.273-11.913C20.77 70.69 115.203 6.383 225.879 6.383S430.992 70.69 445.55 155.969c.722 4.246-.469 8.59-3.278 11.914zm0 0" fill="#3a312a"/>
  <path d="M423.336 375.887H28.426C14.383 375.887 3 387.27 3 401.309c0 26.418 21.414 47.832 47.832 47.832H400.93c26.418 0 47.832-21.414 47.832-47.832 0-14.04-11.383-25.422-25.426-25.422zm0 0" fill="#fce8cb"/>
  <path d="M423.336 372.883H28.426C12.75 372.883 0 385.637 0 401.309c0 28.03 22.805 50.832 50.836 50.832h40.059c1.66 0 3-1.34 3-3 0-1.657-1.34-3-3-3H50.832c-24.719 0-44.836-20.11-44.836-44.832 0-12.368 10.063-22.426 22.426-22.426h394.91c12.367 0 22.426 10.062 22.426 22.426 0 24.718-20.113 44.832-44.832 44.832H120.867c-1.66 0-3 1.343-3 3 0 1.66 1.34 3 3 3H400.93c28.027 0 50.832-22.801 50.832-50.832 0-15.672-12.754-28.426-28.426-28.426zm0 0" fill="#3a312a"/>
  <path d="M386.906 299.105H64.852c-21.204 0-38.391 17.188-38.391 38.387 0 21.203 17.187 38.39 38.39 38.39h322.055c21.203 0 38.39-17.187 38.39-38.39.005-21.199-17.183-38.387-38.39-38.387zm0 0" fill="#f16c7a"/>
  <path d="M386.91 296.105H64.852c-22.825 0-41.391 18.567-41.391 41.387 0 22.824 18.566 41.39 41.39 41.39h322.06c22.82 0 41.39-18.566 41.39-41.39 0-22.82-18.57-41.387-41.39-41.387zm0 76.778H64.852c-19.512 0-35.391-15.875-35.391-35.39 0-19.513 15.875-35.388 35.39-35.388h322.06c19.515 0 35.39 15.875 35.39 35.387 0 19.52-15.88 35.39-35.39 35.39zm0 0" fill="#3a312a"/>
  <path d="M392.996 234.496H58.766c-17.84 0-32.305 14.461-32.305 32.305 0 17.84 14.46 32.304 32.305 32.304h334.23c17.84 0 32.305-14.464 32.305-32.304 0-17.84-14.465-32.305-32.305-32.305zm0 0" fill="#87796f"/>
  <path d="M392.996 231.496H58.766c-19.47 0-35.305 15.84-35.305 35.305s15.836 35.304 35.305 35.304h334.23c19.465 0 35.305-15.84 35.305-35.304 0-19.465-15.84-35.305-35.305-35.305zm0 64.61H58.766c-16.16 0-29.305-13.149-29.305-29.305 0-16.16 13.144-29.305 29.305-29.305h334.23c16.156 0 29.305 13.149 29.305 29.305s-13.149 29.304-29.305 29.304zm0 0" fill="#3a312a"/>
  <path d="M49.922 197.352L276.09 310.305l26.469 13.218 16.582 8.282c10.472 5.23 23.207 1.675 29.449-8.227l79.633-126.226zm0 0" fill="#fce8cb"/>
  <path d="M430.848 195.902a3 3 0 0 0-2.625-1.55H49.922c-1.39 0-2.602.957-2.918 2.312a2.994 2.994 0 0 0 1.578 3.371l226.172 112.953a3.001 3.001 0 0 0 4.023-1.343 3.003 3.003 0 0 0-1.343-4.024l-214.79-107.27h360.137l-76.726 121.626a19.72 19.72 0 0 1-25.575 7.144l-16.582-8.281a3.002 3.002 0 0 0-4.023 1.344 3.003 3.003 0 0 0 1.344 4.023l16.582 8.281a25.807 25.807 0 0 0 11.554 2.742c8.583 0 16.887-4.308 21.774-12.05l79.629-126.227a2.997 2.997 0 0 0 .09-3.05zm0 0" fill="#3a312a"/>
  <path d="M397.094 176.262H54.664C26.133 176.262 3 199.395 3 227.93h.094c.957 16.722 14.781 30 31.746 30s30.789-13.278 31.75-30h.183c.957 16.722 14.786 30 31.75 30 16.961 0 30.786-13.278 31.747-30h.187c.957 16.722 14.781 30 31.746 30s30.79-13.278 31.75-30h.184c.96 16.722 14.785 30 31.75 30s30.789-13.278 31.746-30h.183c.961 16.722 14.786 30 31.75 30s30.79-13.278 31.747-30h.187c.957 16.722 14.785 30 31.746 30 16.965 0 30.79-13.278 31.746-30h.188c.957 16.722 14.785 30 31.75 30 16.96 0 30.789-13.278 31.746-30h.094c-.008-28.535-23.141-51.668-51.676-51.668zm0 0" fill="#d7e057"/>
  <path d="M397.094 173.262H54.664C24.524 173.262 0 197.785 0 227.93c0 .312.05.617.148.902 1.41 18.059 16.512 32.098 34.696 32.098 14.14 0 26.414-8.493 31.84-20.766 5.421 12.274 17.695 20.766 31.84 20.766 14.14 0 26.417-8.493 31.84-20.766 5.421 12.274 17.695 20.766 31.84 20.766 14.14 0 26.417-8.493 31.839-20.766 5.422 12.274 17.695 20.766 31.84 20.766 14.14 0 26.418-8.493 31.84-20.766 5.422 12.274 17.699 20.766 31.84 20.766s26.417-8.493 31.84-20.766c5.421 12.274 17.699 20.766 31.84 20.766 14.14 0 26.417-8.496 31.843-20.766 5.422 12.27 17.7 20.766 31.84 20.766 18.168 0 33.258-14.02 34.687-32.059.098-.297.153-.613.153-.941-.004-30.145-24.528-54.668-54.672-54.668zm48.578 54.496c-.871 15.234-13.5 27.172-28.75 27.172s-27.879-11.938-28.758-27.172c-.09-1.59-1.59-2.828-3.18-2.828s-2.902 1.242-2.992 2.828c-.875 15.234-13.504 27.172-28.754 27.172s-27.879-11.938-28.754-27.172c-.09-1.59-1.59-2.828-3.18-2.828a2.998 2.998 0 0 0-2.991 2.828c-.875 15.234-13.504 27.172-28.754 27.172s-27.88-11.938-28.754-27.172c-.09-1.586-1.59-2.828-3.18-2.828s-2.906 1.242-2.996 2.828c-.871 15.234-13.5 27.172-28.75 27.172s-27.883-11.938-28.754-27.172c-.09-1.59-1.59-2.828-3.18-2.828a3.004 3.004 0 0 0-2.996 2.828c-.875 15.234-13.504 27.172-28.75 27.172-15.25 0-27.879-11.938-28.754-27.172-.09-1.59-1.59-2.828-3.18-2.828s-2.902 1.242-2.995 2.828c-.875 15.234-13.5 27.172-28.75 27.172s-27.88-11.938-28.754-27.172c-.09-1.59-1.59-2.828-3.18-2.828a2.998 2.998 0 0 0-2.992 2.828c-.875 15.234-13.504 27.172-28.754 27.172S6.96 242.992 6.086 227.758a2.987 2.987 0 0 0-.082-.54c.379-26.507 22.062-47.956 48.66-47.956h342.43c26.593 0 48.273 21.437 48.66 47.941-.043.18-.07.363-.082.555zm0 0" fill="#3a312a"/>
  <path d="M445.54 155.96C431 70.685 336.558 6.384 225.878 6.384c-5.04 0-10.04.14-15 .398 104.101 5.5 190.781 67.781 204.66 149.18.742 4.262-.46 8.601-3.258 11.922a15.195 15.195 0 0 1-11.62 5.379h30c4.5 0 8.718-1.961 11.62-5.38 2.797-3.32 4-7.66 3.258-11.921zm0 0" fill="#decaad"/>
  <path d="M423.34 378.883h-30c12.36 0 22.422 10.058 22.422 22.418 0 24.722-20.121 44.84-44.84 44.84h30c24.719 0 44.84-20.118 44.84-44.84 0-12.36-10.063-22.418-22.422-22.418zm0 0" fill="#decaad"/>
  <path d="M386.898 302.102H365.68l-.602.96c15.602 3.7 27.223 17.739 27.223 34.442 0 19.5-15.88 35.379-35.403 35.379h30c19.524 0 35.403-15.88 35.403-35.38 0-19.523-15.88-35.401-35.403-35.401zm0 0" fill="#d34e5c"/>
  <path d="M421.621 260.582c-1.543.2-3.101.34-4.7.34-7.8 0-15.023-2.578-20.862-6.961l-4.38 6.941c.4 1.899.622 3.88.622 5.899 0 13.742-9.5 25.3-22.281 28.441l-.54.86H393c16.16 0 29.3-13.141 29.3-29.301 0-2.14-.241-4.219-.679-6.219zm0 0" fill="#695b51"/>
  <path d="M397.102 179.262h-30c26.578 0 48.257 21.441 48.66 47.941a2.35 2.35 0 0 0-.082.559c-.559 9.761-5.942 18.16-13.739 22.941a28.638 28.638 0 0 0 14.98 4.219c15.259 0 27.88-11.918 28.759-27.16 0-.2.039-.38.082-.559-.403-26.5-22.082-47.941-48.66-47.941zm0 0" fill="#b9c239"/>
</svg>