<svg height="452pt" viewBox="0 0 452.171 452" width="452pt" xmlns="http://www.w3.org/2000/svg">
  <path d="M3.39 293.621L59.38 417.145a54.091 54.091 0 0 0 49.266 31.761h235.25a54.102 54.102 0 0 0 49.273-31.761l55.984-123.524zm0 0" fill="#87796f"/>
  <path d="M451.676 291.996a3 3 0 0 0-2.524-1.375H3.391c-1.02 0-1.965.516-2.52 1.375a2.99 2.99 0 0 0-.21 2.863l55.984 123.524c9.23 20.367 29.64 33.523 52 33.523h42.609a3 3 0 0 0 0-6h-42.61c-20.007 0-38.273-11.773-46.535-30L8.043 296.621H444.5l-54.066 119.285c-8.262 18.223-26.532 30-46.54 30H181.286a3 3 0 0 0 0 6h162.61c22.363 0 42.773-13.156 52.003-33.523l55.989-123.524a3.01 3.01 0 0 0-.211-2.863zm0 0" fill="#3a312a"/>
  <path d="M449.086 292.246c-1.363-23.023-19.77-41.937-42.746-43.906-8.328-.715-16.238.77-23.246 3.902-25.617-30.75-86.176-52.363-156.82-52.363-70.641 0-131.196 21.61-156.817 52.355-7.012-3.129-14.922-4.613-23.25-3.894-22.977 1.976-41.375 20.894-42.734 43.918-1.602 27.21 19.992 49.785 46.859 49.785 12.145 0 23.211-4.613 31.547-12.184 29.965 24.184 83.414 40.293 144.39 40.293 24.227 0 47.258-2.55 68.106-7.132l29.21-8.223c18.86-6.621 34.911-15.117 47.087-24.942 8.336 7.575 19.406 12.188 31.555 12.188 26.875 0 48.468-22.578 46.859-49.797zm0 0" fill="#fce8cb"/>
  <path d="M452.082 292.066c-1.453-24.535-21.008-44.62-45.488-46.714a50.213 50.213 0 0 0-22.649 3.28c-27.777-31.503-89.27-51.753-157.672-51.753-68.398 0-129.886 20.25-157.671 51.75a50.155 50.155 0 0 0-22.649-3.274c-24.48 2.106-44.027 22.196-45.473 46.73-.82 13.923 3.977 27.161 13.508 37.274 9.54 10.114 22.446 15.688 36.344 15.688a49.834 49.834 0 0 0 31.629-11.293c32.043 24.707 85.71 39.398 144.309 39.398 23.87 0 47.003-2.422 68.75-7.203a2.998 2.998 0 0 0 2.285-3.574c-.356-1.617-1.953-2.656-3.575-2.285-21.324 4.687-44.023 7.062-67.46 7.062-58.485 0-111.758-14.812-142.508-39.625a2.998 2.998 0 0 0-3.899.114 43.833 43.833 0 0 1-29.531 11.406c-12.23 0-23.586-4.902-31.977-13.805C9.97 316.348 5.75 304.7 6.47 292.437c1.273-21.582 18.469-39.25 39.996-41.105 7.566-.648 14.894.574 21.765 3.645a2.996 2.996 0 0 0 3.532-.817c25.953-31.148 86.601-51.277 154.508-51.277 67.91 0 128.562 20.129 154.515 51.285a3 3 0 0 0 3.528.816c6.875-3.07 14.203-4.297 21.769-3.656 21.531 1.852 38.73 19.52 40.008 41.102.723 12.257-3.496 23.914-11.883 32.808-8.39 8.903-19.75 13.809-31.98 13.809a43.84 43.84 0 0 1-29.536-11.41 2.998 2.998 0 0 0-3.902-.114c-11.976 9.66-27.516 17.883-46.2 24.446a2.996 2.996 0 0 0-1.835 3.824 2.998 2.998 0 0 0 3.824 1.836c18.332-6.434 33.793-14.465 46.008-23.883a49.829 49.829 0 0 0 31.64 11.3c13.899 0 26.81-5.573 36.348-15.694 9.535-10.118 14.328-23.356 13.508-37.286zm0 0" fill="#3a312a"/>
  <path d="M164.71 38.906l-.944-.808c-4.961-4.27-7.68-9.88-7.66-15.801.023-5.93 2.792-11.531 7.796-15.777l.157-.133a2.997 2.997 0 0 0 .351-4.227 3.002 3.002 0 0 0-4.23-.351l-.153.132c-6.367 5.403-9.89 12.621-9.918 20.336-.027 7.7 3.434 14.934 9.746 20.368l.942.812c4.984 4.285 7.707 9.922 7.66 15.863-.043 5.97-2.863 11.59-7.941 15.832a3.006 3.006 0 0 0-.38 4.227 2.995 2.995 0 0 0 2.305 1.074c.68 0 1.36-.226 1.922-.695 6.453-5.395 10.04-12.637 10.094-20.395.055-7.734-3.406-15-9.746-20.457zm0 0" fill="#3a312a"/>
  <path d="M208.336 38.906l-.941-.808c-4.961-4.27-7.684-9.883-7.66-15.801.023-5.93 2.792-11.531 7.804-15.785l.152-.13a2.998 2.998 0 0 0 .336-4.23 2.998 2.998 0 0 0-4.23-.336l-.145.125c-6.367 5.399-9.89 12.621-9.922 20.332-.027 7.704 3.438 14.938 9.747 20.368l.945.812c4.98 4.29 7.703 9.922 7.66 15.867-.047 5.965-2.867 11.59-7.945 15.828a3.002 3.002 0 0 0 1.925 5.305c.68 0 1.364-.23 1.922-.7 6.453-5.39 10.04-12.632 10.098-20.39.059-7.734-3.402-15-9.746-20.457zm0 0" fill="#3a312a"/>
  <path d="M249.063 38.906l-.942-.808c-4.96-4.27-7.684-9.88-7.66-15.801.02-5.93 2.793-11.531 7.797-15.777l.156-.133a3 3 0 0 0-3.879-4.578l-.156.132c-6.367 5.403-9.887 12.621-9.918 20.336-.027 7.7 3.434 14.934 9.75 20.368l.941.812c4.985 4.285 7.703 9.918 7.66 15.863-.042 5.97-2.863 11.59-7.94 15.832a3 3 0 0 0 1.925 5.301c.676 0 1.36-.226 1.922-.695 6.453-5.39 10.039-12.633 10.094-20.395.05-7.734-3.41-15-9.75-20.457zm0 0" fill="#3a312a"/>
  <path d="M292.691 38.906l-.941-.808c-4.965-4.27-7.684-9.88-7.66-15.797.02-5.93 2.789-11.535 7.797-15.781l.152-.13a3.002 3.002 0 0 0 .352-4.23 2.997 2.997 0 0 0-4.227-.347l-.156.132c-6.367 5.399-9.89 12.621-9.918 20.336-.027 7.7 3.433 14.934 9.75 20.367l.941.813c4.98 4.289 7.703 9.918 7.66 15.863-.043 5.969-2.863 11.594-7.941 15.832a3 3 0 0 0-.379 4.227 2.994 2.994 0 0 0 4.227.379c6.453-5.39 10.035-12.633 10.093-20.39.051-7.743-3.41-15.009-9.75-20.466zm0 0" fill="#3a312a"/>
  <path d="M64.82 22.441C62.871 45.566 38.77 49.22 38.77 49.22c20.695.972 25.851 28.117 25.851 28.117.442-19.356 26.645-28.402 26.645-28.402C71.636 47.758 64.82 22.44 64.82 22.44zm0 0" fill="#d7e057"/>
  <path d="M91.445 45.938c-17.21-1.032-23.664-24.047-23.73-24.282-.38-1.402-1.7-2.316-3.164-2.203a2.998 2.998 0 0 0-2.719 2.735c-1.723 20.43-22.629 23.93-23.508 24.066a2.991 2.991 0 0 0-2.547 3.121 2.998 2.998 0 0 0 2.856 2.84c18.054.851 22.996 25.437 23.043 25.683a3.005 3.005 0 0 0 3.195 2.426 3.001 3.001 0 0 0 2.75-2.918c.39-17.015 24.387-25.554 24.629-25.636a3.001 3.001 0 0 0 1.984-3.247 3 3 0 0 0-2.789-2.586zM64.31 66.627c-2.711-6.26-7.414-13.816-15.172-17.753 5.863-2.809 12.82-7.824 16.406-16.543 3.102 6.14 8.398 13.762 16.664 17.445-6.012 3.278-13.844 8.809-17.898 16.852zm0 0" fill="#3a312a"/>
  <path d="M21.422 56.398C20.043 72.758 3 75.344 3 75.344c14.633.687 18.281 19.886 18.281 19.886.313-13.687 18.844-20.09 18.844-20.09-13.879-.831-18.703-18.742-18.703-18.742zm0 0" fill="#d7e057"/>
  <path d="M40.305 72.145c-11.532-.692-15.946-16.372-15.989-16.532a2.992 2.992 0 0 0-3.164-2.203 2.998 2.998 0 0 0-2.718 2.735C17.277 69.887 3.14 72.28 2.55 72.375a2.994 2.994 0 0 0-2.547 3.121 3.005 3.005 0 0 0 2.855 2.844c12.07.566 15.446 17.285 15.48 17.45a2.998 2.998 0 0 0 3.192 2.429 3 3 0 0 0 2.754-2.922C24.543 83.879 40.95 78.03 41.11 77.973a2.997 2.997 0 0 0-.804-5.828zm-19.168 13.59c-1.848-3.77-4.68-7.891-8.895-10.56 3.711-2.081 7.395-5.257 9.742-9.831 2.114 3.75 5.309 7.91 9.883 10.449-3.699 2.2-7.98 5.477-10.73 9.941zm0 0" fill="#3a312a"/>
  <path d="M21.422 3.086C20.043 19.446 3 22.027 3 22.027c14.633.688 18.281 19.891 18.281 19.891.313-13.691 18.844-20.094 18.844-20.094-13.879-.832-18.703-18.738-18.703-18.738zm0 0" fill="#d7e057"/>
  <path d="M40.305 18.828C28.773 18.141 24.359 2.457 24.316 2.301A2.984 2.984 0 0 0 21.152.098a2.998 2.998 0 0 0-2.718 2.738C17.277 16.574 3.14 18.969 2.55 19.063a2.994 2.994 0 0 0-2.547 3.12 3.005 3.005 0 0 0 2.855 2.844c12.07.567 15.446 17.286 15.48 17.45a2.998 2.998 0 0 0 2.942 2.441c.086 0 .168 0 .25-.012a3 3 0 0 0 2.754-2.922C24.543 30.566 40.95 24.72 41.11 24.66a2.997 2.997 0 0 0 1.993-3.242 3.015 3.015 0 0 0-2.797-2.59zM21.137 32.422c-1.848-3.774-4.68-7.895-8.895-10.563 3.711-2.082 7.395-5.257 9.742-9.832 2.114 3.75 5.309 7.91 9.883 10.45-3.699 2.199-7.98 5.476-10.73 9.945zm0 0" fill="#3a312a"/>
  <path d="M303.008 116.047l-14.723-9.188-11.324-7.066c-29.648 47.52-15.16 110.078 32.355 139.727 47.524 29.652 110.079 15.164 139.727-32.356zm0 0" fill="#d7e057"/>
  <path d="M451.965 206.484a3.013 3.013 0 0 0-1.332-1.867L289.87 104.313l-11.324-7.063a2.992 2.992 0 0 0-4.129.957c-14.766 23.664-19.434 51.66-13.137 78.828 6.293 27.172 22.79 50.266 46.45 65.031 17.152 10.704 36.238 15.801 55.105 15.801 34.863 0 68.976-17.422 88.754-49.113.422-.68.555-1.492.375-2.27zm-141.059 30.489c-22.3-13.914-37.851-35.68-43.781-61.293-5.703-24.633-1.852-49.985 10.832-71.73l166.914 104.144c-29.34 44.023-88.777 57.078-133.965 28.879zm0 0" fill="#3a312a"/>
  <path d="M335.48 136.305l-6.757-4.211-5.192-3.242c-13.601 21.8-6.957 50.5 14.844 64.097 21.8 13.602 50.496 6.957 64.098-14.844zm0 0" fill="#fce8cb"/>
  <g fill="#3a312a">
    <path d="M405.395 177.43a2.983 2.983 0 0 0-1.336-1.868l-73.747-46.015-5.195-3.238a3.001 3.001 0 0 0-4.133.957c-7 11.222-9.214 24.504-6.23 37.386 2.984 12.891 10.808 23.844 22.031 30.848 7.965 4.965 16.961 7.523 26.121 7.523 3.746 0 7.528-.425 11.27-1.296 12.887-2.985 23.84-10.809 30.844-22.032a2.981 2.981 0 0 0 .375-2.265zm-65.434 12.976c-9.863-6.152-16.738-15.781-19.36-27.11-2.398-10.343-.98-20.98 3.973-30.257l73.68 45.973c-13.281 18.36-38.79 23.562-58.293 11.394zm0 0"/>
    <path d="M308.102 132.266c-.88-1.133-3.247-3.82-6.637-4.766-2.356-.652-4.918.125-5.39 1.832-.477 1.707 1.273 3.672 3.671 4.352 3.387.96 6.805-.137 8.14-.657a.495.495 0 0 0 .216-.761zm0 0"/>
    <path d="M304.246 155.328c-1.183-.808-4.262-2.64-7.781-2.492-2.442.098-4.64 1.625-4.567 3.398.07 1.77 2.344 3.102 4.832 3.012 3.52-.125 6.438-2.223 7.547-3.125a.497.497 0 0 0-.03-.793zm0 0"/>
    <path d="M310.617 180.262c-1.422-.168-5-.364-8.05 1.398-2.114 1.223-3.356 3.598-2.47 5.133.887 1.531 3.516 1.66 5.68.426 3.059-1.742 4.672-4.953 5.235-6.27a.493.493 0 0 0-.395-.687zm0 0"/>
    <path d="M332.219 203.625a.493.493 0 0 0-.668-.422c-1.34.512-4.594 2.008-6.469 4.988-1.305 2.067-1.293 4.746.203 5.692 1.5.945 3.883-.168 5.227-2.27 1.898-2.968 1.824-6.562 1.707-7.988zm0 0"/>
    <path d="M413.383 197.336c-2.336-2.637-5.793-3.578-7.195-3.867a.493.493 0 0 0-.59.523c.117 1.43.632 4.985 2.988 7.606 1.668 1.851 4.2 2.562 5.523 1.382 1.325-1.175.899-3.82-.726-5.644zm0 0"/>
    <path d="M392.832 212.957c-1.418-3.223-4.414-5.184-5.664-5.89a.495.495 0 0 0-.723.32c-.324 1.394-.925 4.937.508 8.152 1.016 2.277 3.211 3.73 4.832 3.016 1.621-.711 2.027-3.36 1.047-5.598zm0 0"/>
    <path d="M361.973 212.3a.496.496 0 0 0-.79-.05c-.933 1.086-3.113 3.945-3.331 7.457-.157 2.488 1.109 4.793 2.878 4.914s3.356-2.035 3.524-4.476c.242-3.512-1.504-6.637-2.281-7.844zm0 0"/>
  </g>
  <path d="M226.273 109.36c-30.761 0-55.699 49.402-55.699 87.89 0 38.484 24.938 50.445 55.7 50.445 30.757 0 55.695-11.96 55.695-50.445 0-38.488-24.938-87.89-55.696-87.89zm0 0" fill="#f16c7a"/>
  <path d="M268.242 137.352c-11.738-19.985-26.644-30.993-41.969-30.993-15.328 0-30.234 11.008-41.972 30.993-10.473 17.835-16.723 40.222-16.723 59.898 0 34.965 20.293 53.445 58.695 53.445 38.403 0 58.7-18.48 58.7-53.445-.004-19.676-6.258-42.066-16.73-59.898zm-41.969 107.343c-34.968 0-52.699-15.965-52.699-47.445 0-18.652 5.946-39.906 15.899-56.86 10.464-17.812 23.875-28.03 36.8-28.03 12.922 0 26.332 10.214 36.793 28.03 9.957 16.954 15.903 38.208 15.903 56.86 0 31.48-17.727 47.445-52.696 47.445zm0 0" fill="#3a312a"/>
  <path d="M153.637 170.598c-21.325-2.84-40.91 12.148-43.75 33.472-2.836 21.325 12.152 40.91 33.476 43.75 21.325 2.836 40.91-12.152 43.746-33.476 2.84-21.324-12.148-40.91-33.472-43.746zm0 0" fill="#8ac6dd"/>
  <path d="M148.492 167.262c-23.133 0-41.953 18.816-41.953 41.949s18.82 41.95 41.953 41.95c23.13 0 41.95-18.817 41.95-41.95 0-23.129-18.82-41.95-41.95-41.95zm0 77.898c-19.824 0-35.953-16.125-35.953-35.95 0-19.82 16.129-35.948 35.953-35.948 19.82 0 35.95 16.125 35.95 35.949 0 19.824-16.13 35.95-35.95 35.95zm0 0" fill="#3a312a"/>
  <path d="M113.984 236.227c0 21.511-17.437 38.949-38.949 38.949-21.512 0-38.95-17.438-38.95-38.95 0-21.511 17.438-38.949 38.95-38.949 21.512 0 38.95 17.438 38.95 38.95zm0 0" fill="#8ac6dd"/>
  <path d="M75.035 194.277c-23.133 0-41.95 18.817-41.95 41.95 0 23.128 18.817 41.949 41.95 41.949 23.133 0 41.95-18.817 41.95-41.95 0-23.132-18.82-41.949-41.95-41.949zm0 77.899c-19.824 0-35.95-16.125-35.95-35.95 0-19.824 16.126-35.949 35.95-35.949 19.82 0 35.95 16.125 35.95 35.95 0 19.82-16.13 35.949-35.95 35.949zm0 0" fill="#3a312a"/>
  <path d="M141.883 177.352c0 21.511-17.438 38.949-38.95 38.949-21.511 0-38.953-17.438-38.953-38.95 0-21.511 17.442-38.949 38.954-38.949 21.511 0 38.949 17.438 38.949 38.95zm0 0" fill="#8ac6dd"/>
  <path d="M102.934 135.402c-23.133 0-41.954 18.817-41.954 41.95 0 23.132 18.82 41.949 41.954 41.949 23.129 0 41.949-18.817 41.949-41.95 0-23.132-18.82-41.949-41.95-41.949zm0 77.899c-19.825 0-35.954-16.125-35.954-35.95 0-19.824 16.13-35.953 35.954-35.953s35.949 16.13 35.949 35.954-16.13 35.949-35.95 35.949zm0 0" fill="#3a312a"/>
  <path d="M402.23 345.047c-3.937 0-7.84-.461-11.597-1.379l-32.742 72.238c-8.258 18.219-26.54 30-46.54 30h32.54c20.023 0 38.28-11.781 46.543-30l34.597-76.34c-6.937 3.579-14.699 5.48-22.8 5.48zm0 0" fill="#695b51"/>
  <path d="M446.094 292.426c-1.281-21.578-18.48-39.258-40.02-41.102-2.183-.18-4.32-.199-6.46-.078a105.597 105.597 0 0 1-12.083 3.719c14.602 6.52 25.043 20.84 26.02 37.46.722 12.262-3.5 23.923-11.88 32.802-4.48 4.757-9.82 8.378-15.679 10.699a43.874 43.874 0 0 0 16.238 3.12c12.223 0 23.582-4.901 31.98-13.82 8.384-8.878 12.602-20.539 11.884-32.8zm0 0" fill="#decaad"/>
</svg>