<svg height="452pt" viewBox="-70 0 452 452.36" width="452pt" xmlns="http://www.w3.org/2000/svg">
  <path d="M65 22.355C63.05 45.48 38.953 49.133 38.953 49.133c20.692.976 25.848 28.12 25.848 28.12.445-19.355 26.644-28.405 26.644-28.405C71.816 47.676 65 22.355 65 22.355zm0 0" fill="#d7e057"/>
  <path d="M91.621 45.855C74.414 44.82 67.957 21.805 67.895 21.57a2.997 2.997 0 0 0-3.168-2.203 3.001 3.001 0 0 0-2.72 2.735C60.29 42.535 39.384 46.032 38.5 46.168a3 3 0 0 0 .309 5.96c18.058.852 23 25.438 23.046 25.688a3.002 3.002 0 0 0 3.196 2.422 2.992 2.992 0 0 0 2.75-2.918c.39-17.02 24.383-25.554 24.625-25.636a3 3 0 1 0-.805-5.828zM64.488 66.543c-2.71-6.258-7.418-13.813-15.172-17.75 5.864-2.813 12.817-7.828 16.403-16.547 3.101 6.14 8.402 13.762 16.668 17.445-6.012 3.282-13.844 8.809-17.899 16.852zm0 0" fill="#3a312a"/>
  <path d="M21.602 56.316C20.222 72.676 3.18 75.258 3.18 75.258c14.633.687 18.28 19.887 18.28 19.887.313-13.688 18.845-20.09 18.845-20.09-13.88-.832-18.703-18.739-18.703-18.739zm0 0" fill="#d7e057"/>
  <path d="M40.484 72.059c-11.53-.692-15.941-16.371-15.984-16.532a2.999 2.999 0 0 0-3.164-2.203 2.998 2.998 0 0 0-2.723 2.735C17.457 69.8 3.32 72.19 2.73 72.285a3.002 3.002 0 0 0 .309 5.965c12.07.566 15.445 17.29 15.477 17.453a3.002 3.002 0 0 0 3.195 2.43 2.996 2.996 0 0 0 2.75-2.922c.262-11.418 16.664-17.266 16.824-17.32a3.002 3.002 0 0 0-.8-5.832zm-19.168 13.59c-1.847-3.77-4.68-7.895-8.894-10.56 3.71-2.081 7.394-5.257 9.742-9.831 2.113 3.746 5.309 7.91 9.883 10.449-3.7 2.2-7.98 5.477-10.73 9.941zm0 0" fill="#3a312a"/>
  <path d="M21.602 3C20.222 19.36 3.18 21.941 3.18 21.941c14.633.688 18.28 19.891 18.28 19.891.313-13.691 18.845-20.094 18.845-20.094C26.425 20.906 21.602 3 21.602 3zm0 0" fill="#d7e057"/>
  <path d="M40.484 18.746C28.954 18.055 24.54 2.375 24.5 2.215A3.007 3.007 0 0 0 21.336.012a2.998 2.998 0 0 0-2.723 2.734C17.457 16.488 3.32 18.88 2.73 18.973a3 3 0 0 0 .31 5.965c12.07.566 15.444 17.285 15.476 17.453a3.002 3.002 0 0 0 5.949-.493c.258-11.418 16.664-17.27 16.824-17.324a3 3 0 0 0-.805-5.828zm-19.168 13.59c-1.847-3.773-4.68-7.895-8.894-10.559 3.71-2.082 7.394-5.261 9.742-9.836 2.113 3.75 5.309 7.91 9.883 10.45-3.7 2.199-7.98 5.48-10.73 9.945zm0 0" fill="#3a312a"/>
  <path d="M159.805 3.602v48.18a107.59 107.59 0 0 1 16.543-1.262c5.617 0 11.136.421 16.539 1.261V3.601zm0 0" fill="#8ac6dd"/>
  <path d="M192.887.602h-33.082a3 3 0 0 0-3 3v48.18c0 .874.382 1.706 1.05 2.277a3 3 0 0 0 2.41.687c10.45-1.625 21.715-1.625 32.16 0a3.002 3.002 0 0 0 2.41-.684 2.992 2.992 0 0 0 1.048-2.28V3.601c.004-1.657-1.34-3-2.996-3zm-3 47.734c-4.442-.543-8.98-.816-13.543-.816-4.559 0-9.098.273-13.54.816V6.602h27.079v41.734zm0 0" fill="#3a312a"/>
  <path d="M176.348 50.523c-59 0-106.953 47.168-108.239 105.844h216.473c-1.285-58.676-49.238-105.844-108.234-105.844zm0 0" fill="#fce8cb"/>
  <path d="M254.207 79.3c-20.918-20.491-48.57-31.777-77.863-31.777s-56.946 11.286-77.86 31.778C77.602 99.758 65.75 127.105 65.11 156.305c-.015.804.29 1.586.856 2.164a2.99 2.99 0 0 0 2.144.902h216.473c.805 0 1.582-.324 2.145-.902s.87-1.36.855-2.164c-.637-29.2-12.492-56.547-33.375-77.004zM71.219 153.372c1.34-26.469 12.441-51.148 31.465-69.785 19.789-19.387 45.949-30.063 73.664-30.063 27.71 0 53.87 10.676 73.66 30.063 19.027 18.637 30.129 43.316 31.465 69.785zm0 0" fill="#3a312a"/>
  <path d="M71.7 189.18l7.882 65.34L90.379 344l3.601 29.719 1 8.281 3.48 28.879L100 423.66l1.16 9.7c1.102 9.14 8.86 16 18.04 16h114.28c9.18 0 16.942-6.86 18.04-16l1.16-9.68 6.039-50.02L262.3 344l10.8-89.48 7.88-65.34zm0 0" fill="#f16c7a"/>
  <path d="M283.223 187.191a2.996 2.996 0 0 0-2.246-1.011H239.52a3 3 0 0 0 0 6h38.078l-29.055 240.824c-.918 7.613-7.395 13.355-15.063 13.355H119.2c-7.669 0-14.145-5.742-15.063-13.355L75.082 192.18h134.266a3 3 0 0 0 0-6H71.699c-.86 0-1.676.367-2.246 1.011a2.996 2.996 0 0 0-.734 2.348l18.68 154.824 10.78 89.356c1.282 10.629 10.317 18.64 21.02 18.64h114.278c10.707 0 19.742-8.011 21.023-18.64l29.457-244.18a2.996 2.996 0 0 0-.734-2.348zm0 0" fill="#3a312a"/>
  <path d="M293.07 156.375H59.621c-9.062 0-16.406 7.344-16.406 16.406s7.344 16.406 16.406 16.406h233.45c9.062 0 16.406-7.343 16.406-16.406s-7.344-16.406-16.407-16.406zm0 0" fill="#fce8cb"/>
  <path d="M293.07 153.375H59.621c-10.703 0-19.41 8.707-19.41 19.406s8.707 19.406 19.41 19.406h149.727a3 3 0 0 0 0-6H59.62c-7.394 0-13.41-6.015-13.41-13.406 0-7.394 6.016-13.406 13.41-13.406h233.45c7.394 0 13.406 6.012 13.406 13.406 0 7.39-6.012 13.406-13.407 13.406h-53.55a3 3 0 0 0 0 6h53.55c10.703 0 19.407-8.707 19.407-19.406 0-10.703-8.704-19.406-19.407-19.406zm0 0" fill="#3a312a"/>
  <path d="M223.012 254.52c-11.77-12.27-28.317-19.926-46.664-19.926s-34.899 7.656-46.668 19.926H79.586l10.8 89.48h39.294c11.77 12.273 28.32 19.93 46.668 19.93s34.898-7.657 46.664-19.93h39.293l10.8-89.48zm0 0" fill="#d7e057"/>
  <path d="M275.352 252.531a2.988 2.988 0 0 0-2.243-1.011h-48.832c-12.797-12.86-29.765-19.926-47.93-19.926-18.163 0-35.132 7.066-47.929 19.926h-8.047a3 3 0 0 0 0 6h9.309c.82 0 1.601-.332 2.168-.922 11.75-12.254 27.554-19.004 44.5-19.004 16.941 0 32.746 6.75 44.5 19.004.566.59 1.347.922 2.164.922h46.71L259.646 341h-36.63c-.82 0-1.6.336-2.167.926-11.75 12.254-27.555 19.004-44.5 19.004-16.95 0-32.75-6.75-44.5-19.004a3.003 3.003 0 0 0-2.164-.926H93.047l-10.078-83.48h9.351c1.66 0 3-1.344 3-3s-1.34-3-3-3H79.586c-.86 0-1.676.367-2.246 1.011a2.996 2.996 0 0 0-.735 2.348l10.801 89.48A3 3 0 0 0 90.383 347h38.031c12.797 12.863 29.766 19.93 47.93 19.93 18.168 0 35.136-7.067 47.933-19.93h38.028a3.001 3.001 0 0 0 2.98-2.64l10.8-89.481a2.982 2.982 0 0 0-.733-2.348zm0 0" fill="#3a312a"/>
  <path d="M219.07 299.262c0 23.593-19.129 42.722-42.722 42.722-23.598 0-42.727-19.129-42.727-42.722 0-23.598 19.129-42.727 42.727-42.727 23.593 0 42.722 19.13 42.722 42.727zm0 0" fill="#fce8cb"/>
  <path d="M176.348 253.54c-25.215 0-45.723 20.51-45.723 45.722 0 25.21 20.508 45.722 45.723 45.722 25.21 0 45.722-20.511 45.722-45.722 0-25.211-20.511-45.723-45.722-45.723zm0 85.444c-21.907 0-39.723-17.82-39.723-39.722 0-21.903 17.82-39.723 39.723-39.723s39.722 17.82 39.722 39.723c0 21.902-17.82 39.722-39.722 39.722zm0 0" fill="#3a312a"/>
  <path d="M176.465 398.305c0 14.015-11.363 25.379-25.38 25.379-14.015 0-25.378-11.364-25.378-25.38 0-14.015 11.363-25.378 25.379-25.378 14.016 0 25.379 11.363 25.379 25.379zm0 0" fill="#87796f"/>
  <path d="M151.086 369.926c-15.649 0-28.379 12.73-28.379 28.379 0 15.644 12.73 28.379 28.379 28.379 15.648 0 28.379-12.73 28.379-28.38 0-15.648-12.73-28.378-28.38-28.378zm0 50.758c-12.34 0-22.379-10.043-22.379-22.38 0-12.34 10.043-22.378 22.379-22.378 12.34 0 22.379 10.039 22.379 22.379 0 12.336-10.04 22.379-22.38 22.379zm0 0" fill="#3a312a"/>
  <path d="M227.219 398.305c0 14.015-11.36 25.379-25.375 25.379s-25.38-11.364-25.38-25.38c0-14.015 11.364-25.378 25.38-25.378s25.375 11.363 25.375 25.379zm0 0" fill="#87796f"/>
  <path d="M201.844 369.926c-15.649 0-28.38 12.73-28.38 28.379 0 15.644 12.731 28.379 28.38 28.379 15.644 0 28.375-12.73 28.375-28.38 0-15.648-12.73-28.378-28.375-28.378zm0 50.758c-12.34 0-22.38-10.043-22.38-22.38 0-12.34 10.044-22.378 22.38-22.378 12.34 0 22.375 10.039 22.375 22.379 0 12.336-10.035 22.379-22.375 22.379zm0 0" fill="#3a312a"/>
  <path d="M100.34 372.922c-2.2 0-4.32.277-6.36.797l1 8.281 3.48 28.879L100 423.66c.121.02.219.02.34.02 14 0 25.36-11.36 25.36-25.38s-11.36-25.378-25.36-25.378zm0 0" fill="#87796f"/>
  <path d="M100.34 369.922c-2.39 0-4.781.297-7.106.89a3.007 3.007 0 0 0-2.234 3.27l6.02 49.938a3 3 0 0 0 2.496 2.601c.289.047.53.059.824.059 15.637 0 28.36-12.73 28.36-28.38 0-15.648-12.723-28.378-28.36-28.378zm2.308 50.668l-5.355-44.461a22.06 22.06 0 0 1 3.047-.207c12.328 0 22.36 10.039 22.36 22.379 0 11.597-8.864 21.164-20.052 22.289zm0 0" fill="#3a312a"/>
  <path d="M252.602 372.922c-14.02 0-25.383 11.36-25.383 25.379s11.363 25.379 25.383 25.379h.078l6.039-50.02c-1.957-.48-4-.738-6.117-.738zm0 0" fill="#87796f"/>
  <path d="M259.434 370.746a28.782 28.782 0 0 0-6.832-.824c-15.649 0-28.383 12.73-28.383 28.379 0 15.648 12.734 28.379 28.46 28.379a2.995 2.995 0 0 0 2.977-2.64l6.043-50.02a3.008 3.008 0 0 0-2.265-3.274zm-9.399 49.79c-11.137-1.274-19.816-10.759-19.816-22.235 0-12.34 10.039-22.38 22.379-22.38.937 0 1.875.06 2.8.177zm0 0" fill="#3a312a"/>
  <path d="M176.465 398.305c0 14.015-11.363 25.379-25.38 25.379-14.015 0-25.378-11.364-25.378-25.38 0-14.015 11.363-25.378 25.379-25.378 14.016 0 25.379 11.363 25.379 25.379zm0 0" fill="#87796f"/>
  <path d="M151.086 369.926c-15.649 0-28.379 12.73-28.379 28.379 0 15.644 12.73 28.379 28.379 28.379 15.648 0 28.379-12.73 28.379-28.38 0-15.648-12.73-28.378-28.38-28.378zm0 50.758c-12.34 0-22.379-10.043-22.379-22.38 0-12.34 10.043-22.378 22.379-22.378 12.34 0 22.379 10.039 22.379 22.379 0 12.336-10.04 22.379-22.38 22.379zm0 0" fill="#3a312a"/>
  <path d="M201.84 423.68c-14.02 0-25.38 11.36-25.38 25.379v.3h50.759v-.3c0-14.02-11.36-25.38-25.38-25.38zm0 0" fill="#87796f"/>
  <path d="M201.84 420.68c-15.649 0-28.38 12.734-28.38 28.379v.3a3 3 0 0 0 3 3h50.759a3 3 0 0 0 3-3v-.3c0-15.645-12.73-28.38-28.38-28.38zm-22.219 25.68c1.336-11.07 10.793-19.68 22.219-19.68 11.426 0 20.875 8.61 22.215 19.68zm0 0" fill="#3a312a"/>
  <path d="M151.082 423.68c-14 0-25.383 11.36-25.383 25.379v.3h50.762v-.3c0-14.02-11.36-25.38-25.379-25.38zm0 0" fill="#87796f"/>
  <path d="M151.078 420.68c-15.648 0-28.379 12.734-28.379 28.379v.3c0 1.657 1.34 3 3 3h50.758a3 3 0 0 0 3-3v-.3c0-15.645-12.73-28.38-28.379-28.38zm-22.215 25.68c1.336-11.07 10.79-19.68 22.219-19.68 11.426 0 20.879 8.61 22.215 19.68zm0 0" fill="#3a312a"/>
  <path d="M176.465 398.305c-14.016 0-25.38 11.363-25.38 25.379s11.364 25.375 25.38 25.375 25.379-11.36 25.379-25.375-11.364-25.38-25.38-25.38zm0 0" fill="#87796f"/>
  <path d="M176.465 395.305c-15.649 0-28.38 12.73-28.38 28.379 0 15.648 12.731 28.375 28.38 28.375 15.648 0 28.379-12.727 28.379-28.375 0-15.649-12.73-28.38-28.38-28.38zm0 50.754c-12.34 0-22.38-10.04-22.38-22.375 0-12.34 10.04-22.38 22.38-22.38s22.379 10.04 22.379 22.38-10.04 22.375-22.38 22.375zm0 0" fill="#3a312a"/>
  <path d="M227.223 398.305c-14.016 0-25.38 11.363-25.38 25.379s11.364 25.375 25.38 25.375 25.379-11.36 25.379-25.375-11.364-25.38-25.38-25.38zm0 0" fill="#87796f"/>
  <path d="M227.219 395.305c-15.645 0-28.375 12.73-28.375 28.379 0 15.648 12.73 28.375 28.375 28.375 15.648 0 28.379-12.727 28.379-28.375.004-15.649-12.73-28.38-28.38-28.38zm0 50.754c-12.336 0-22.375-10.04-22.375-22.375 0-12.34 10.039-22.38 22.375-22.38 12.34 0 22.379 10.04 22.379 22.38.004 12.34-10.04 22.375-22.38 22.375zm0 0" fill="#3a312a"/>
  <path d="M125.707 398.305c-14.016 0-25.375 11.363-25.375 25.379s11.36 25.375 25.375 25.375 25.379-11.36 25.379-25.375-11.363-25.38-25.379-25.38zm0 0" fill="#87796f"/>
  <path d="M125.707 395.305c-15.648 0-28.375 12.73-28.375 28.379 0 15.648 12.727 28.375 28.375 28.375s28.379-12.727 28.379-28.375c0-15.649-12.73-28.38-28.379-28.38zm0 50.754c-12.336 0-22.375-10.04-22.375-22.375 0-12.34 10.035-22.38 22.375-22.38s22.379 10.04 22.379 22.38-10.04 22.375-22.379 22.375zm0 0" fill="#3a312a"/>
  <path d="M250 83.582c-19.781-19.383-45.941-30.062-73.66-30.062-4.258 0-8.461.261-12.621.761C186.679 57 208 67.18 224.739 83.582c19.042 18.637 30.14 43.316 31.48 69.777h25.261c-1.34-26.46-12.44-51.14-31.48-69.777zm0 0" fill="#decaad"/>
  <path d="M252.34 192.18l-7.16 59.34h25.261l7.16-59.34zm0 0" fill="#d34e5c"/>
  <path d="M233.66 347l-2.8 23.14c-1.16-.14-2.34-.218-3.52-.218a27.766 27.766 0 0 0-12.738 3.058 28.582 28.582 0 0 1 12.617 12.7c4.66-9.32 14.281-15.758 25.383-15.758 1.18 0 2.359.078 3.52.219l2.8-23.141zm0 0" fill="#d34e5c"/>
  <path d="M293.082 159.379H267.82c7.38 0 13.399 6 13.399 13.402 0 7.399-6.02 13.399-13.399 13.399h25.262c7.379 0 13.398-6 13.398-13.399 0-7.402-6.02-13.402-13.398-13.402zm0 0" fill="#decaad"/>
  <path d="M244.46 257.52L234.38 341h25.262l10.078-83.48zm0 0" fill="#b9c239"/>
</svg>