<svg height="451pt" viewBox="0 0 451 451.989" width="451pt" xmlns="http://www.w3.org/2000/svg">
  <path d="M3.496 4.824v412.352c0 17.57 14.242 31.816 31.813 31.816h412.355c0-245.308-198.863-444.168-444.168-444.168zm0 0" fill="#fce8cb"/>
  <path d="M319.691 132.793C235.231 48.336 122.937 1.824 3.496 1.824c-1.656 0-3 1.34-3 3V28.75a3 3 0 0 0 6 0V7.832c116.719.773 226.332 46.586 308.953 129.207 82.617 82.621 128.434 192.234 129.203 308.953H35.31c-15.887 0-28.813-12.926-28.813-28.812V59.73a3 3 0 0 0-6 0v357.446c0 19.195 15.617 34.812 34.813 34.812h412.355c1.656 0 3-1.34 3-3 0-119.441-46.516-231.734-130.973-316.195zm0 0" fill="#3a312a"/>
  <path d="M3.496 85.14v332.036c0 17.57 14.242 31.816 31.813 31.816h332.039C367.344 248.04 204.445 85.141 3.496 85.141zm0 0" fill="#d7e057"/>
  <path d="M3.496 82.14c-1.656 0-3 1.34-3 3v332.036c0 19.195 15.617 34.812 34.813 34.812h332.039c1.656 0 3-1.34 3-3 0-202.281-164.57-366.847-366.852-366.847zM35.31 445.993c-15.887 0-28.813-12.926-28.813-28.816V88.152c196.61 1.602 356.234 161.227 357.84 357.84zm0 0" fill="#3a312a"/>
  <path d="M124.965 124.04c-24.422-3.009-46.656 14.35-49.664 38.772-3.004 24.422 14.355 46.657 38.773 49.665 24.422 3.003 46.656-14.356 49.664-38.774 3.008-24.422-14.351-46.656-38.773-49.664zm0 0" fill="#f16c7a"/>
  <path d="M119.52 120.7c-26.22 0-47.551 21.331-47.551 47.554 0 26.219 21.332 47.55 47.55 47.55 26.223 0 47.555-21.331 47.555-47.55 0-26.223-21.332-47.555-47.554-47.555zm0 89.109c-22.91 0-41.551-18.641-41.551-41.555 0-22.91 18.64-41.55 41.55-41.55 22.915 0 41.555 18.64 41.555 41.55s-18.64 41.555-41.554 41.555zm0 0" fill="#3a312a"/>
  <path d="M342.191 379.402c0 24.606-19.949 44.551-44.554 44.551s-44.551-19.945-44.551-44.55c0-24.606 19.945-44.551 44.55-44.551s44.555 19.945 44.555 44.55zm0 0" fill="#f16c7a"/>
  <path d="M297.637 331.852c-26.219 0-47.551 21.332-47.551 47.55s21.332 47.551 47.55 47.551c26.223 0 47.555-21.332 47.555-47.55s-21.332-47.551-47.554-47.551zm0 89.101c-22.91 0-41.551-18.637-41.551-41.55 0-22.91 18.64-41.551 41.55-41.551 22.915 0 41.555 18.64 41.555 41.55 0 22.914-18.64 41.551-41.554 41.551zm0 0" fill="#3a312a"/>
  <path d="M90.14 340.613c-22.73-9.414-48.792 1.383-58.21 24.114-9.418 22.734 1.379 48.8 24.11 58.214 22.733 9.418 48.796-1.379 58.214-24.113 9.414-22.734-1.379-48.797-24.113-58.215zm0 0" fill="#f16c7a"/>
  <path d="M73.082 334.219c-26.223 0-47.555 21.332-47.555 47.554 0 26.22 21.332 47.551 47.555 47.551 26.219 0 47.55-21.332 47.55-47.55 0-26.223-21.331-47.555-47.55-47.555zm0 89.105c-22.914 0-41.555-18.64-41.555-41.55 0-22.915 18.641-41.555 41.555-41.555 22.91 0 41.55 18.64 41.55 41.554 0 22.91-18.64 41.551-41.55 41.551zm0 0" fill="#3a312a"/>
  <path d="M213.98 250.066c-3.886-2.105-7.777-3.89-11.488-5.5-.277.32-.539.66-.793 1.012l-2.984 4.238-3.453 4.899-2.922 4.14c-4.516 6.407-2.426 15.317 4.46 19.051l3.247 1.758c6.86 3.715 15.422.649 18.363-6.578l6.11-15.043c.171-.422.324-.852.44-1.285-3.401-2.254-7.05-4.563-10.98-6.692zm0 0" fill="#fce8cb"/>
  <path d="M226.617 254.254c-2.91-1.926-6.816-4.445-11.203-6.824-4.309-2.336-8.531-4.227-11.726-5.618a3.005 3.005 0 0 0-3.458.778c-.343.394-.671.816-.98 1.258l-9.363 13.277a16.126 16.126 0 0 0-2.516 12.941 16.113 16.113 0 0 0 8 10.473l3.246 1.758a16.074 16.074 0 0 0 7.668 1.941 16.082 16.082 0 0 0 14.899-10.027l6.117-15.047a14.34 14.34 0 0 0 .547-1.601 3 3 0 0 0-1.23-3.31zm-10.992 17.7a10.094 10.094 0 0 1-5.941 5.698 10.095 10.095 0 0 1-8.207-.629l-3.247-1.757c-2.53-1.371-4.359-3.766-5.015-6.567s-.082-5.761 1.574-8.113l6.379-9.043 2.3-3.27c2.712 1.207 5.887 2.7 9.083 4.43 3.262 1.77 6.27 3.633 8.765 5.25zm0 0" fill="#3a312a"/>
  <path d="M237.375 206.895c-13.875-7.52-29.348-8.063-41.25-2.688l-5.398 3.023c-4.227 2.88-7.766 6.668-10.278 11.301-9.828 18.137 11.922 19.828 33.531 31.54 21.614 11.706 34.903 29.007 44.73 10.867 9.83-18.137.278-42.333-21.335-54.043zm0 0" fill="#87796f"/>
  <path d="M262.625 230.406c-4.29-10.863-12.75-20.148-23.82-26.148-14.254-7.723-30.668-8.762-43.914-2.785a2.485 2.485 0 0 0-.227.117l-5.398 3.02c-.075.042-.149.085-.223.136-4.766 3.242-8.543 7.402-11.227 12.356-2.789 5.14-3.48 9.52-2.125 13.394 2.442 6.98 10.735 10.5 21.235 14.95 4.828 2.05 10.297 4.37 15.629 7.257 5.332 2.887 10.261 6.203 14.613 9.129 8.164 5.492 14.848 9.984 21.137 9.984 1.004 0 1.996-.117 2.984-.359 3.984-.977 7.277-3.953 10.063-9.094 5.18-9.558 5.632-20.91 1.273-31.957zm-6.55 29.102c-1.938 3.57-3.97 5.574-6.22 6.129-4.625 1.136-11.437-3.465-19.343-8.782-4.461-3-9.52-6.402-15.102-9.425-5.582-3.024-11.195-5.407-16.144-7.504-8.774-3.723-16.348-6.934-17.914-11.41-.766-2.188-.2-4.985 1.734-8.555 2.207-4.066 5.309-7.492 9.223-10.18l5.164-2.89c11.53-5.157 25.898-4.172 38.472 2.64 9.832 5.328 17.325 13.528 21.098 23.078 3.7 9.368 3.352 18.922-.969 26.899zm0 0" fill="#3a312a"/>
  <path d="M187.3 369.957l-3.452-15.863c-.098-.45-.215-.887-.36-1.313-4.078.067-8.398.223-12.84.688-4.398.457-8.617 1.183-12.59 1.953-.046.418-.07.844-.081 1.277l-.067 5.188-.082 5.988-.07 5.07c-.106 7.836 6.648 14.008 14.441 13.196l3.672-.383c7.754-.809 13.086-8.176 11.43-15.801zm0 0" fill="#fce8cb"/>
  <path d="M190.23 369.32l-3.457-15.879c-.12-.55-.27-1.093-.445-1.62-.422-1.235-1.59-2.012-2.89-2.04-3.497.055-8.149.188-13.102.703-4.875.504-9.426 1.329-12.848 1.993a2.994 2.994 0 0 0-2.414 2.597c-.058.512-.09 1.04-.101 1.586l-.22 16.242c-.062 4.59 1.845 9 5.235 12.098a16.095 16.095 0 0 0 12.516 4.121l3.672-.379a16.1 16.1 0 0 0 11.367-6.57c2.68-3.7 3.66-8.387 2.687-12.852zm-7.546 9.336a10.086 10.086 0 0 1-7.125 4.117l-3.672.383a10.097 10.097 0 0 1-7.852-2.586 10.104 10.104 0 0 1-3.281-7.586l.152-11.058.055-4c2.914-.535 6.375-1.098 9.996-1.477 3.684-.383 7.219-.543 10.2-.617l3.21 14.762a10.107 10.107 0 0 1-1.683 8.062zm0 0" fill="#3a312a"/>
  <path d="M213.695 337.168c-2.136-20.516-23.687-35.086-48.136-32.543-15.696 1.637-28.77 9.93-35.551 21.086l-2.75 5.543c-1.863 4.766-2.64 9.89-2.094 15.133 2.133 20.52 21.035 9.625 45.48 7.082 24.45-2.547 45.188 4.215 43.051-16.301zm0 0" fill="#87796f"/>
  <path d="M216.68 336.855c-1.125-10.82-7.164-20.44-17.004-27.09-9.676-6.542-21.903-9.433-34.426-8.12-16.125 1.68-30.258 10.093-37.809 22.511-.039.074-.086.149-.12.223l-2.75 5.543c-.04.078-.075.16-.11.242-2.098 5.367-2.867 10.93-2.285 16.535.605 5.813 2.508 9.824 5.816 12.254 2.668 1.961 5.914 2.688 9.692 2.688 4.648 0 10.105-1.102 16.277-2.348 5.14-1.035 10.965-2.215 16.996-2.844 6.031-.625 11.973-.676 17.215-.719 11.406-.093 20.414-.167 25.34-5.683 2.738-3.059 3.773-7.375 3.168-13.192zm-7.64 9.192c-3.161 3.535-11.388 3.605-20.919 3.683-5.375.043-11.469.094-17.785.754-6.316.657-12.293 1.864-17.563 2.926-9.343 1.887-17.406 3.516-21.226.707-1.867-1.37-2.98-4.004-3.402-8.039-.477-4.598.148-9.176 1.863-13.61l2.625-5.3c6.597-10.77 19.012-18.074 33.238-19.555 11.133-1.16 21.934 1.371 30.441 7.125 8.348 5.637 13.461 13.715 14.399 22.742.422 4.036-.125 6.84-1.672 8.567zm0 0" fill="#3a312a"/>
  <path d="M97.895 275.852l-12.168-10.75c-.344-.301-.7-.586-1.067-.844-3.25 2.465-6.64 5.144-9.95 8.148-3.272 2.969-6.245 6.051-8.995 9.02.21.367.445.726.695 1.082l3.012 4.222 3.476 4.88 2.942 4.128c4.55 6.38 13.648 7.36 19.45 2.098l2.737-2.48c5.774-5.243 5.715-14.336-.132-19.504zm0 0" fill="#fce8cb"/>
  <path d="M99.883 273.605l-12.18-10.757a14.743 14.743 0 0 0-1.328-1.047 3.002 3.002 0 0 0-3.527.07c-2.793 2.117-6.47 4.973-10.153 8.313-3.632 3.293-6.812 6.648-9.18 9.207a2.998 2.998 0 0 0-.413 3.511c.257.457.55.903.863 1.348l9.43 13.227a16.101 16.101 0 0 0 11.378 6.66 16.114 16.114 0 0 0 12.531-4.082l2.735-2.48a16.118 16.118 0 0 0 5.281-12.016 16.115 16.115 0 0 0-5.437-11.954zm-3.875 19.528l-2.735 2.48a10.083 10.083 0 0 1-14.988-1.617l-6.422-9.008-2.32-3.258c2.035-2.152 4.492-4.656 7.187-7.101 2.739-2.484 5.497-4.703 7.856-6.531l11.328 10.004a10.114 10.114 0 0 1 3.406 7.496 10.116 10.116 0 0 1-3.312 7.535zm0 0" fill="#3a312a"/>
  <path d="M99.781 233.8c-13.855-15.277-39.851-14.277-58.058 2.235-11.692 10.606-17.328 25.028-16.196 38.035l1.063 6.09c1.316 4.945 3.719 9.54 7.262 13.442 13.859 15.277 22.656-4.684 40.859-21.196 18.207-16.511 38.93-23.324 25.07-38.605zm0 0" fill="#87796f"/>
  <path d="M102.008 231.785c-14.953-16.48-42.895-15.566-62.301 2.031-12.008 10.891-18.426 26.036-17.164 40.516.008.086.016.168.035.254l1.059 6.09c.015.086.035.172.054.258 1.485 5.57 4.153 10.511 7.938 14.683 3.93 4.332 7.836 6.438 11.941 6.442h.008c7.39 0 13.457-6.66 21.129-15.086 3.531-3.88 7.531-8.274 12.02-12.344 4.492-4.07 9.253-7.625 13.457-10.762 9.14-6.824 16.359-12.21 17.07-19.574.398-4.09-1.32-8.18-5.246-12.508zm-.727 11.926c-.453 4.723-7.05 9.644-14.687 15.348-4.309 3.214-9.192 6.859-13.895 11.125s-8.804 8.773-12.426 12.75c-6.414 7.043-11.953 13.128-16.695 13.128h-.004c-2.32-.003-4.773-1.464-7.5-4.472-3.11-3.426-5.308-7.488-6.55-12.074l-1.016-5.832c-1.047-12.582 4.637-25.817 15.23-35.422 16.953-15.375 41.098-16.473 53.82-2.446 2.731 3.008 3.95 5.59 3.723 7.895zm0 0" fill="#3a312a"/>
  <path d="M419.258 22.355c-1.95 23.13-26.051 26.778-26.051 26.778 20.695.972 25.848 28.117 25.848 28.117.445-19.352 26.644-28.402 26.644-28.402-19.625-1.176-26.441-26.493-26.441-26.493zm0 0" fill="#d7e057"/>
  <path d="M445.879 45.852c-17.207-1.028-23.664-24.047-23.727-24.282a3.001 3.001 0 0 0-5.886.532c-1.72 20.43-22.625 23.925-23.508 24.062a3 3 0 0 0 .312 5.965c18.055.851 22.996 25.437 23.043 25.687a3.005 3.005 0 0 0 3.2 2.422 2.998 2.998 0 0 0 2.75-2.918c.386-17.015 24.382-25.554 24.624-25.636a3.004 3.004 0 0 0 1.989-3.246 3.01 3.01 0 0 0-2.797-2.586zM418.75 66.543c-2.715-6.262-7.418-13.816-15.176-17.754 5.863-2.809 12.817-7.828 16.403-16.543 3.105 6.14 8.398 13.758 16.668 17.441-6.016 3.282-13.844 8.813-17.895 16.856zm0 0" fill="#3a312a"/>
  <path d="M375.86 56.316c-1.38 16.356-18.423 18.938-18.423 18.938 14.637.687 18.282 19.89 18.282 19.89.312-13.69 18.844-20.09 18.844-20.09-13.883-.831-18.704-18.738-18.704-18.738zm0 0" fill="#d7e057"/>
  <path d="M394.742 72.059c-11.531-.692-15.945-16.371-15.988-16.528a2.998 2.998 0 0 0-5.883.531c-1.156 13.743-15.293 16.133-15.883 16.227a3.002 3.002 0 0 0 .309 5.965c12.07.566 15.45 17.285 15.476 17.45a3.005 3.005 0 0 0 3.196 2.433 3.006 3.006 0 0 0 2.754-2.926c.257-11.418 16.66-17.266 16.824-17.32a3.009 3.009 0 0 0 1.992-3.246 3.007 3.007 0 0 0-2.797-2.586zm-19.168 13.59c-1.851-3.77-4.683-7.895-8.894-10.56 3.71-2.081 7.394-5.257 9.742-9.831 2.113 3.746 5.305 7.906 9.879 10.445-3.696 2.203-7.977 5.48-10.727 9.945zm0 0" fill="#3a312a"/>
  <path d="M375.86 3c-1.38 16.355-18.423 18.941-18.423 18.941 14.637.688 18.282 19.887 18.282 19.887.312-13.687 18.844-20.09 18.844-20.09C380.68 20.906 375.858 3 375.858 3zm0 0" fill="#d7e057"/>
  <path d="M394.742 18.746c-11.531-.691-15.945-16.375-15.988-16.531a3.017 3.017 0 0 0-3.16-2.203 2.998 2.998 0 0 0-2.723 2.734c-1.156 13.742-15.293 16.133-15.883 16.23a2.991 2.991 0 0 0-2.547 3.122 2.998 2.998 0 0 0 2.856 2.84c12.07.57 15.45 17.289 15.476 17.453a3.005 3.005 0 0 0 3.196 2.43 3.002 3.002 0 0 0 2.754-2.923c.257-11.418 16.66-17.27 16.824-17.324a3.004 3.004 0 0 0 1.992-3.242 3.003 3.003 0 0 0-2.797-2.586zm-19.168 13.586c-1.851-3.77-4.683-7.894-8.894-10.559 3.71-2.082 7.394-5.261 9.742-9.832 2.113 3.746 5.305 7.907 9.879 10.446-3.696 2.203-7.977 5.48-10.727 9.945zm0 0" fill="#3a312a"/>
  <path d="M64.73 125.512c-1.242-12.434-12.335-21.508-24.773-20.258-12.437 1.246-21.508 12.336-20.262 24.773 1.246 12.434 12.34 21.508 24.778 20.258C56.91 149.04 65.98 137.95 64.73 125.512zm-23.843 9.992c-5.305.531-10.035-3.34-10.567-8.645-.535-5.3 3.336-10.035 8.64-10.566 5.306-.531 10.04 3.336 10.571 8.64.532 5.305-3.34 10.04-8.644 10.57zm0 0" fill="#8ac6dd"/>
  <path d="M38.664 113.309a12.567 12.567 0 0 0-8.535 4.578 12.59 12.59 0 0 0-2.793 9.273c.652 6.516 6.168 11.39 12.582 11.39.418 0 .844-.023 1.27-.062 6.94-.699 12.023-6.914 11.328-13.855-.696-6.942-6.891-12.028-13.852-11.324zm1.926 19.207c-1.766.175-3.5-.344-4.875-1.47s-2.23-2.718-2.41-4.487a6.62 6.62 0 0 1 1.472-4.875 6.61 6.61 0 0 1 5.157-2.442c3.37 0 6.27 2.567 6.613 5.988.367 3.653-2.305 6.922-5.957 7.286zm27.125-7.305c-1.406-14.059-14.016-24.332-28.055-22.945-14.062 1.41-24.36 13.996-22.95 28.058 1.325 13.196 12.493 23.074 25.485 23.074.852 0 1.711-.043 2.575-.128 6.812-.68 12.953-3.977 17.285-9.278 4.336-5.3 6.347-11.969 5.66-18.781zm-10.3 14.984c-3.321 4.063-8.024 6.582-13.24 7.11-10.769 1.078-20.41-6.805-21.491-17.575-1.079-10.773 6.804-20.414 17.574-21.492.66-.066 1.32-.097 1.969-.097 9.953 0 18.507 7.562 19.523 17.671a19.51 19.51 0 0 1-4.336 14.383zm0 0" fill="#3a312a"/>
  <path d="M165.98 261.648c-1.242-12.437-12.34-21.507-24.773-20.257-12.437 1.246-21.508 12.336-20.262 24.773 1.246 12.434 12.34 21.504 24.774 20.258 12.441-1.246 21.508-12.336 20.261-24.774zm-23.843 9.993c-5.305.53-10.035-3.34-10.567-8.645-.53-5.305 3.34-10.035 8.645-10.566 5.305-.532 10.035 3.336 10.566 8.64.531 5.305-3.34 10.035-8.644 10.57zm0 0" fill="#8ac6dd"/>
  <path d="M168.965 261.352c-1.41-14.067-13.996-24.336-28.055-22.95-6.812.684-12.953 3.977-17.289 9.278-4.332 5.3-6.344 11.972-5.66 18.78.684 6.813 3.977 12.954 9.277 17.286 4.625 3.781 10.29 5.793 16.18 5.793.863 0 1.734-.043 2.605-.129 6.813-.683 12.95-3.98 17.282-9.281 4.336-5.297 6.347-11.969 5.66-18.777zm-23.54 22.086c-5.218.527-10.323-1.016-14.386-4.336a19.505 19.505 0 0 1-7.105-13.239 19.493 19.493 0 0 1 4.336-14.383 19.505 19.505 0 0 1 13.238-7.105c.664-.066 1.32-.102 1.969-.102 9.953 0 18.503 7.567 19.523 17.676 1.078 10.77-6.805 20.41-17.574 21.489zm-5.51-33.997c-6.946.7-12.028 6.914-11.33 13.852a12.558 12.558 0 0 0 4.58 8.535 12.55 12.55 0 0 0 7.987 2.86c.426 0 .856-.02 1.286-.063a12.57 12.57 0 0 0 8.53-4.582 12.561 12.561 0 0 0 2.798-9.27c-.696-6.945-6.934-12.023-13.852-11.332zm6.41 16.805a6.605 6.605 0 0 1-4.485 2.406 6.61 6.61 0 0 1-4.88-1.468 6.589 6.589 0 0 1-2.405-4.489 6.656 6.656 0 0 1 6.625-7.316 6.662 6.662 0 0 1 6.617 5.992 6.598 6.598 0 0 1-1.473 4.875zm0 0" fill="#3a312a"/>
  <path d="M306.75 292.055c-1.246-12.438-12.34-21.508-24.777-20.262-12.434 1.246-21.508 12.34-20.258 24.777 1.246 12.434 12.34 21.508 24.773 20.258 12.438-1.246 21.508-12.336 20.262-24.773zm-23.844 9.988c-5.304.535-10.039-3.336-10.57-8.64-.531-5.305 3.34-10.04 8.644-10.571 5.305-.531 10.036 3.34 10.567 8.645.531 5.304-3.34 10.035-8.64 10.566zm0 0" fill="#8ac6dd"/>
  <path d="M280.68 279.848a12.571 12.571 0 0 0-8.535 4.582 12.564 12.564 0 0 0-2.793 9.27c.652 6.519 6.168 11.394 12.582 11.394.421 0 .843-.024 1.27-.067 6.94-.695 12.023-6.91 11.327-13.851-.695-6.942-6.894-12.028-13.851-11.328zm1.925 19.21c-3.656.376-6.918-2.304-7.285-5.956-.18-1.77.344-3.5 1.47-4.875a6.594 6.594 0 0 1 4.487-2.41c.223-.024.446-.036.668-.036a6.668 6.668 0 0 1 6.617 5.992 6.66 6.66 0 0 1-5.957 7.286zm27.125-7.304c-1.406-14.063-14.015-24.344-28.054-22.945-14.063 1.41-24.356 13.996-22.95 28.058.684 6.813 3.977 12.95 9.282 17.285 4.62 3.778 10.285 5.79 16.176 5.79.863 0 1.734-.044 2.605-.13 6.813-.683 12.953-3.976 17.285-9.277 4.332-5.297 6.344-11.969 5.656-18.781zm-10.3 14.984a19.498 19.498 0 0 1-13.239 7.106c-5.214.531-10.328-1.016-14.386-4.336a19.505 19.505 0 0 1-7.106-13.238c-1.078-10.77 6.805-20.41 17.574-21.493.66-.066 1.32-.097 1.973-.097 9.95 0 18.504 7.566 19.52 17.672v.003a19.51 19.51 0 0 1-4.336 14.383zm0 0" fill="#3a312a"/>
  <path d="M242.89 400.605c-1.245-12.433-12.335-21.507-24.773-20.257-12.433 1.246-21.504 12.336-20.258 24.773s12.336 21.508 24.774 20.258c12.437-1.242 21.504-12.336 20.258-24.774zm-23.843 9.993c-5.305.53-10.035-3.34-10.57-8.645-.532-5.3 3.34-10.035 8.644-10.566 5.305-.532 10.04 3.34 10.57 8.64.532 5.305-3.34 10.04-8.644 10.57zm0 0" fill="#8ac6dd"/>
  <path d="M245.875 400.309c-1.41-14.063-13.98-24.352-28.055-22.946-6.812.68-12.953 3.977-17.289 9.278-4.332 5.296-6.344 11.968-5.66 18.78s3.977 12.954 9.277 17.286c4.625 3.781 10.29 5.793 16.18 5.793.863 0 1.73-.043 2.602-.129 14.062-1.414 24.36-14 22.945-28.062zm-23.543 22.09c-5.21.527-10.324-1.02-14.383-4.336a19.513 19.513 0 0 1-7.105-13.243 19.493 19.493 0 0 1 4.336-14.382 19.496 19.496 0 0 1 13.238-7.106 19.79 19.79 0 0 1 1.973-.098c9.949 0 18.5 7.563 19.52 17.672 1.077 10.77-6.81 20.41-17.579 21.492zm3.762-31.204a12.592 12.592 0 0 0-9.27-2.793c-6.945.696-12.027 6.91-11.328 13.852a12.55 12.55 0 0 0 4.578 8.531 12.552 12.552 0 0 0 9.274 2.797c6.941-.695 12.023-6.91 11.328-13.852a12.571 12.571 0 0 0-4.582-8.535zm-7.344 16.418a6.626 6.626 0 0 1-4.879-1.468 6.605 6.605 0 0 1-2.406-4.489c-.367-3.648 2.305-6.918 5.957-7.285.226-.023.453-.031.68-.031 1.527 0 2.996.52 4.199 1.504a6.605 6.605 0 0 1 2.406 4.484c.363 3.652-2.309 6.918-5.957 7.285zm0 0" fill="#3a312a"/>
  <path d="M6.5 7.828v1.617c224.477 19.34 401.438 207.48 402.957 436.543h35.203C443.06 205.086 247.398 9.426 6.5 7.828zm0 0" fill="#decaad"/>
</svg>