<svg height="451pt" viewBox="-46 0 451 451.76" width="451pt" xmlns="http://www.w3.org/2000/svg">
  <path d="M65.2 22.352C63.253 45.48 39.147 49.129 39.147 49.129 59.844 50.105 65 77.246 65 77.246c.441-19.351 26.64-28.402 26.64-28.402C72.017 47.668 65.2 22.352 65.2 22.352zm0 0" fill="#d7e057"/>
  <path d="M91.824 45.852C74.617 44.82 68.16 21.8 68.098 21.566c-.383-1.402-1.688-2.316-3.168-2.199a2.998 2.998 0 0 0-2.72 2.735c-1.718 20.43-22.624 23.925-23.507 24.062a2.998 2.998 0 0 0-2.547 3.125 2.998 2.998 0 0 0 2.856 2.84c18.054.851 22.996 25.437 23.043 25.684A3.002 3.002 0 0 0 65 80.245c.086 0 .168 0 .254-.008a3.004 3.004 0 0 0 2.75-2.918c.383-17.015 24.379-25.554 24.621-25.636a3.004 3.004 0 0 0 1.988-3.246 3 3 0 0 0-2.789-2.586zM64.691 66.543c-2.714-6.262-7.418-13.816-15.171-17.754 5.859-2.809 12.816-7.824 16.402-16.547 3.101 6.145 8.398 13.762 16.668 17.446-6.016 3.28-13.848 8.808-17.899 16.855zm0 0" fill="#3a312a"/>
  <path d="M21.8 56.313C20.427 72.668 3.38 75.252 3.38 75.252c14.637.688 18.281 19.888 18.281 19.888.313-13.688 18.848-20.09 18.848-20.09C26.625 74.223 21.8 56.312 21.8 56.312zm0 0" fill="#d7e057"/>
  <path d="M40.688 72.055c-11.536-.688-15.95-16.368-15.993-16.528-.379-1.402-1.734-2.32-3.16-2.203a3.001 3.001 0 0 0-2.722 2.735C17.655 69.8 3.52 72.19 2.93 72.285a3 3 0 0 0 .308 5.961c12.07.57 15.45 17.29 15.477 17.453a3.005 3.005 0 0 0 3.195 2.43 3 3 0 0 0 2.754-2.922c.262-11.418 16.664-17.266 16.824-17.324a2.996 2.996 0 0 0 1.992-3.242 3.007 3.007 0 0 0-2.792-2.586zm-19.172 13.59c-1.848-3.77-4.68-7.895-8.895-10.56 3.711-2.081 7.395-5.257 9.742-9.831 2.114 3.746 5.309 7.91 9.88 10.45-3.696 2.198-7.973 5.48-10.727 9.94zm0 0" fill="#3a312a"/>
  <path d="M21.8 2.996C20.427 19.36 3.38 21.941 3.38 21.941c14.637.688 18.281 19.887 18.281 19.887.313-13.687 18.848-20.09 18.848-20.09C26.625 20.906 21.8 2.996 21.8 2.996zm0 0" fill="#d7e057"/>
  <path d="M40.688 18.742c-11.536-.691-15.95-16.37-15.993-16.527-.379-1.406-1.734-2.32-3.16-2.203a2.998 2.998 0 0 0-2.722 2.734C17.655 16.488 3.52 18.88 2.93 18.973a3.001 3.001 0 0 0 .308 5.965c12.07.57 15.45 17.289 15.477 17.453a3.001 3.001 0 0 0 3.195 2.43 3 3 0 0 0 2.754-2.923c.262-11.418 16.664-17.27 16.824-17.324a3 3 0 0 0-.8-5.832zm-19.172 13.59c-1.848-3.773-4.68-7.894-8.895-10.559 3.711-2.082 7.395-5.261 9.742-9.836 2.114 3.75 5.309 7.91 9.88 10.45-3.696 2.199-7.973 5.48-10.727 9.945zm0 0" fill="#3a312a"/>
  <path d="M317.234 283.063c0-9.547-3.957-18.153-10.332-24.32 8.285-6.165 13.668-15.985 13.668-27.102 0-12.145-6.441-22.774-16.058-28.758 7.937-6.188 13.066-15.828 13.066-26.664 0-12.352-6.644-23.121-16.515-29.031 5.109-5.938 8.214-13.622 8.214-22.067 0-14.883-9.593-27.469-22.937-32.023a33.585 33.585 0 0 0 5.68-18.75c0-17.739-13.622-32.254-30.989-33.703.067-.829.137-1.633.137-2.461 0-18.707-15.16-33.868-33.844-33.868-18.703 0-33.863 15.16-33.863 33.868 0 .828.066 1.68.137 2.507-17.047 1.746-30.32 16.149-30.32 33.657 0 6.949 2.093 13.39 5.679 18.75-13.344 4.554-22.937 17.14-22.937 32.023 0 8.445 3.105 16.129 8.214 22.067-9.87 5.91-16.52 16.68-16.52 29.03 0 10.837 5.134 20.477 13.071 26.665-9.617 5.984-16.058 16.613-16.058 28.758 0 11.113 5.382 20.937 13.664 27.101-6.371 6.168-10.328 14.774-10.328 24.32 0 12.125 6.375 22.708 15.945 28.688-4.164 5.637-6.672 12.563-6.672 20.11 0 14.007 8.512 26.019 20.633 31.171-2.758 4.903-4.371 10.563-4.371 16.61 0 17.37 13.09 31.656 29.933 33.59-.023.414-.07.828-.07 1.242 0 12.859 7.156 24.043 17.738 29.746h.024c4.789 2.625 10.285 4.097 16.105 4.097 6.098 0 11.8-1.609 16.746-4.441 10.219-5.82 17.098-16.797 17.098-29.402 0-.395-.047-.762-.07-1.153 17.164-1.656 30.597-16.101 30.597-33.68 0-6.054-1.61-11.71-4.37-16.609 12.124-5.152 20.636-17.164 20.636-31.176 0-7.546-2.508-14.468-6.672-20.109 9.57-5.976 15.941-16.559 15.941-28.684zm0 0" fill="#d7e057"/>
  <path d="M320.234 283.063c0-8.93-3.148-17.348-8.933-24.032 7.836-6.984 12.27-16.793 12.27-27.386 0-11.461-5.235-22.043-14.192-29.016 7.16-6.922 11.2-16.344 11.2-26.406 0-11.918-5.606-22.809-15.153-29.746a36.82 36.82 0 0 0 6.851-21.356c0-14.52-8.527-27.562-21.554-33.504a36.637 36.637 0 0 0 4.3-17.27c0-18.019-13.335-33.449-30.855-36.335-.094-20.25-16.582-36.696-36.844-36.696-20.297 0-36.82 16.497-36.863 36.79-17.395 3.14-30.184 18.246-30.184 36.242 0 6.07 1.477 11.972 4.297 17.27-13.027 5.94-21.55 18.984-21.55 33.503 0 7.664 2.41 15.129 6.847 21.356-9.547 6.933-15.156 17.824-15.156 29.746 0 10.062 4.043 19.484 11.203 26.406-8.953 6.973-14.191 17.555-14.191 29.016 0 10.593 4.43 20.402 12.27 27.386-5.786 6.684-8.934 15.098-8.934 24.031 0 11.727 5.472 22.536 14.785 29.481-3.618 5.836-5.516 12.453-5.516 19.316a36.808 36.808 0 0 0 19.57 32.555 36.93 36.93 0 0 0-3.304 15.23c0 17.797 12.668 32.883 29.882 36.157a36.74 36.74 0 0 0 19.293 31.062c.07.035.145.075.215.106 5.282 2.844 11.27 4.347 17.336 4.347a36.8 36.8 0 0 0 18.235-4.832c11.05-6.293 18.07-17.902 18.578-30.539 17.605-3.015 30.558-18.164 30.558-36.3 0-5.243-1.136-10.45-3.308-15.23a36.804 36.804 0 0 0 19.574-32.556c0-6.863-1.898-13.48-5.516-19.316 9.317-6.945 14.79-17.754 14.79-29.48zm-20.53 26.144a3.006 3.006 0 0 0-1.36 1.984 2.986 2.986 0 0 0 .535 2.344c3.98 5.387 6.082 11.723 6.082 18.324a30.833 30.833 0 0 1-18.809 28.414 3.022 3.022 0 0 0-1.668 1.793c-.273.809-.191 1.7.227 2.442a30.873 30.873 0 0 1 3.988 15.137c0 15.964-11.988 29.16-27.89 30.695a3 3 0 0 0-2.704 3.168l.032.441c.015.172.035.348.035.528 0 11.054-5.969 21.32-15.582 26.796-9.067 5.188-20.84 5.293-29.922.317a6.424 6.424 0 0 0-.234-.113 30.746 30.746 0 0 1-15.97-27.004c0-.2.016-.403.032-.602l.035-.469a3.002 3.002 0 0 0-2.652-3.152c-15.55-1.785-27.274-14.941-27.274-30.61a30.843 30.843 0 0 1 3.985-15.132 3 3 0 0 0 .222-2.442 2.984 2.984 0 0 0-1.664-1.793 30.83 30.83 0 0 1-18.808-28.414c0-6.601 2.101-12.937 6.086-18.328.496-.672.687-1.52.531-2.34a2.996 2.996 0 0 0-1.355-1.984c-9.102-5.687-14.536-15.46-14.536-26.145 0-8.417 3.344-16.289 9.414-22.164a3 3 0 0 0-.293-4.562c-7.917-5.89-12.457-14.89-12.457-24.695 0-10.707 5.473-20.504 14.641-26.207a2.998 2.998 0 0 0 .262-4.914c-7.57-5.903-11.914-14.758-11.914-24.301 0-10.918 5.633-20.813 15.062-26.457a3.007 3.007 0 0 0 .73-4.532 30.855 30.855 0 0 1-7.484-20.109c0-13.187 8.399-24.914 20.903-29.184a3.008 3.008 0 0 0 1.875-1.878 3.016 3.016 0 0 0-.348-2.63 30.595 30.595 0 0 1-5.176-17.081c0-15.871 11.875-29.059 27.625-30.672a3.008 3.008 0 0 0 2.688-3.235c-.063-.746-.13-1.511-.13-2.257 0-17.024 13.845-30.868 30.864-30.868 17.008 0 30.844 13.844 30.844 30.868 0 .722-.063 1.425-.129 2.21a3.002 3.002 0 0 0 2.742 3.239c15.836 1.32 28.238 14.812 28.238 30.715 0 6.117-1.789 12.023-5.175 17.082a3.001 3.001 0 0 0-.352 2.629c.3.882.992 1.578 1.875 1.878 12.504 4.266 20.906 15.997 20.906 29.184 0 7.356-2.66 14.496-7.488 20.106a3.003 3.003 0 0 0 .734 4.53c9.43 5.65 15.055 15.544 15.055 26.462 0 9.539-4.34 18.394-11.91 24.297a2.989 2.989 0 0 0-1.148 2.523c.05.98.578 1.871 1.41 2.39 9.168 5.704 14.64 15.505 14.64 26.212 0 9.8-4.539 18.8-12.457 24.695a3.001 3.001 0 0 0-1.203 2.21 3.024 3.024 0 0 0 .906 2.352c6.075 5.875 9.418 13.747 9.418 22.16 0 10.688-5.433 20.462-14.53 26.149zm0 0" fill="#3a312a"/>
  <path d="M234.414 84.754l39.703-14.238 24.004 66.953-39.703 14.234zm0 0" fill="#87796f"/>
  <path d="M300.953 136.46L276.95 69.509a3 3 0 0 0-3.832-1.813L233.41 81.934a3.001 3.001 0 0 0-1.812 3.836l24.004 66.953a3 3 0 0 0 3.835 1.808l39.704-14.234a2.998 2.998 0 0 0 1.812-3.836zm-40.719 11.411l-21.976-61.305 34.058-12.207 21.977 61.301zm0 0" fill="#3a312a"/>
  <path d="M104.3 92.309l40.4-12.145 20.476 68.117-40.399 12.145zm0 0" fill="#87796f"/>
  <path d="M168.031 147.426L147.56 79.309a2.998 2.998 0 0 0-3.735-2.008L103.43 89.44a3.004 3.004 0 0 0-1.782 1.45 3.004 3.004 0 0 0-.226 2.285l20.469 68.117a3.003 3.003 0 0 0 2.875 2.14c.285 0 .578-.042.863-.128l40.394-12.14a3.024 3.024 0 0 0 1.782-1.454c.375-.7.457-1.524.226-2.285zm-41.258 9.27l-18.746-62.372 34.649-10.414 18.746 62.371zm0 0" fill="#3a312a"/>
  <path d="M179.64 173.555c0 19.414-15.738 35.152-35.152 35.152-19.41 0-35.148-15.738-35.148-35.152 0-19.41 15.738-35.149 35.148-35.149 19.414 0 35.153 15.739 35.153 35.149zm0 0" fill="#f16c7a"/>
  <path d="M144.488 135.406c-21.035 0-38.144 17.114-38.144 38.149 0 21.039 17.113 38.152 38.144 38.152 21.04 0 38.153-17.113 38.153-38.152 0-21.035-17.114-38.149-38.153-38.149zm0 70.301c-17.722 0-32.144-14.422-32.144-32.152 0-17.727 14.422-32.149 32.144-32.149 17.73 0 32.153 14.422 32.153 32.149 0 17.73-14.422 32.152-32.153 32.152zm0 0" fill="#3a312a"/>
  <path d="M236.348 190.34c-17.934-7.43-38.496 1.09-45.926 19.023-7.43 17.938 1.086 38.5 19.023 45.93 17.934 7.43 38.496-1.09 45.926-19.023 7.43-17.938-1.086-38.5-19.023-45.93zm0 0" fill="#f16c7a"/>
  <path d="M222.887 184.668c-21.035 0-38.149 17.117-38.149 38.152s17.114 38.149 38.149 38.149c21.039 0 38.148-17.114 38.148-38.149 0-21.039-17.113-38.152-38.148-38.152zm0 70.297c-17.727 0-32.149-14.422-32.149-32.149 0-17.726 14.422-32.148 32.149-32.148 17.726 0 32.148 14.422 32.148 32.148 0 17.727-14.422 32.149-32.148 32.149zm0 0" fill="#3a312a"/>
  <path d="M214.871 48.27c-19.41 0-35.148 15.734-35.148 35.144 0 19.414 15.738 35.152 35.148 35.152 19.414 0 35.152-15.738 35.152-35.152 0-19.41-15.738-35.144-35.152-35.144zm0 0" fill="#f16c7a"/>
  <path d="M214.875 45.27c-21.04 0-38.152 17.113-38.152 38.148 0 21.035 17.117 38.148 38.152 38.148s38.148-17.113 38.148-38.148c0-21.04-17.113-38.148-38.148-38.148zm0 70.296c-17.73 0-32.152-14.421-32.152-32.152 0-17.727 14.422-32.148 32.152-32.148 17.727 0 32.148 14.422 32.148 32.148 0 17.73-14.421 32.152-32.148 32.152zm0 0" fill="#3a312a"/>
  <path d="M236.352 152.52c0 19.414-15.739 35.148-35.153 35.148-19.41 0-35.148-15.734-35.148-35.148 0-19.415 15.738-35.149 35.148-35.149 19.414 0 35.153 15.734 35.153 35.149zm0 0" fill="#fce8cb"/>
  <path d="M201.2 114.371c-21.036 0-38.15 17.113-38.15 38.149 0 21.035 17.118 38.148 38.15 38.148 21.034 0 38.148-17.113 38.148-38.148 0-21.036-17.114-38.149-38.149-38.149zm0 70.297c-17.727 0-32.15-14.422-32.15-32.148 0-17.727 14.423-32.149 32.15-32.149 17.726 0 32.148 14.422 32.148 32.149 0 17.726-14.422 32.148-32.149 32.148zm0 0" fill="#3a312a"/>
  <path d="M223.703 194.918l32.375-27.04 45.598 54.587-32.371 27.043zm0 0" fill="#87796f"/>
  <path d="M303.965 220.555l-45.598-54.586a3 3 0 0 0-4.226-.383l-32.371 27.043a2.995 2.995 0 0 0-1.063 2.031c-.07.793.176 1.582.684 2.195l45.597 54.586a2.994 2.994 0 0 0 4.227.38l32.375-27.04a3.011 3.011 0 0 0 1.062-2.035 3.04 3.04 0 0 0-.687-2.191zm-34.297 24.738l-41.75-49.984 27.77-23.192 41.746 49.985zm0 0" fill="#3a312a"/>
  <path d="M164.004 231l13.394-69.852 41.426 7.942-13.394 69.855zm0 0" fill="#87796f"/>
  <path d="M219.387 166.137l-41.426-7.942a2.99 2.99 0 0 0-3.512 2.38l-13.39 69.855a3 3 0 0 0 2.382 3.511l41.422 7.942a2.998 2.998 0 0 0 3.512-2.383l13.395-69.855a3.003 3.003 0 0 0-2.383-3.508zm-16.34 69.289l-35.531-6.813 12.261-63.96 35.532 6.812zm0 0" fill="#3a312a"/>
  <path d="M97.684 171.156l7.511 29.535 7.672 30.16 48.078 188.973c4.328 17.02 19.653 28.934 37.211 28.934h36.266v-140.86c0-75.52-61.223-136.742-136.738-136.742zm0 0" fill="#fce8cb"/>
  <path d="M97.68 168.156c-.926 0-1.801.43-2.371 1.16a3.013 3.013 0 0 0-.54 2.582l7.516 29.536a2.998 2.998 0 0 0 3.649 2.168 3.004 3.004 0 0 0 2.168-3.649l-6.551-25.738c71.96 2.058 129.87 61.238 129.87 133.683v137.864h-33.265a35.37 35.37 0 0 1-34.304-26.672l-48.079-188.977a2.997 2.997 0 0 0-3.648-2.168 2.999 2.999 0 0 0-2.168 3.645l48.078 188.976a41.37 41.37 0 0 0 40.121 31.196h36.266c1.652 0 3-1.344 3-3V307.898c0-77.05-62.688-139.742-139.742-139.742zm0 0" fill="#3a312a"/>
  <path d="M337.36 138.617c-3.29-8.496-10.079-15.289-18.575-18.574-29.93-11.582-57.96 16.45-46.379 46.375 3.29 8.5 10.078 15.293 18.578 18.578 29.926 11.582 57.957-16.45 46.375-46.379zm0 0" fill="#f16c7a"/>
  <path d="M340.16 137.535a35.573 35.573 0 0 0-20.293-20.293c-14.972-5.789-31.05-2.61-41.96 8.305-10.91 10.91-14.09 26.988-8.298 41.953a35.562 35.562 0 0 0 20.29 20.297c4.949 1.914 10.011 2.848 14.972 2.848 10.055-.004 19.68-3.84 26.988-11.149 10.91-10.914 14.09-26.988 8.301-41.96zm-12.547 37.719c-9.207 9.207-22.828 11.871-35.55 6.945a29.541 29.541 0 0 1-16.86-16.863c-4.922-12.719-2.262-26.34 6.945-35.547 6.153-6.152 14.274-9.383 22.782-9.383 4.222 0 8.547.801 12.773 2.434a29.541 29.541 0 0 1 16.86 16.863c4.921 12.719 2.261 26.344-6.95 35.55zm0 0" fill="#3a312a"/>
  <path d="M355.527 171.156c-75.52 0-136.742 61.223-136.742 136.742v140.86h36.262c17.562 0 32.887-11.914 37.215-28.934zm0 0" fill="#fce8cb"/>
  <path d="M357.895 169.316a2.998 2.998 0 0 0-2.368-1.16c-77.054 0-139.742 62.692-139.742 139.742V362.2c0 1.66 1.344 3 3 3s3-1.34 3-3v-54.3c0-72.45 57.91-131.626 129.867-133.684l-62.293 244.87a35.375 35.375 0 0 1-34.308 26.673h-33.262v-52.535c0-1.66-1.344-3-3-3s-3 1.34-3 3v55.535a3 3 0 0 0 3 3h36.262c18.953 0 35.453-12.824 40.125-31.192l63.262-248.668a3.015 3.015 0 0 0-.543-2.582zm0 0" fill="#3a312a"/>
  <path d="M325.902 177.477l-61.476 241.601c-3.98 15.719-18.102 26.68-34.301 26.68h24.918a35.368 35.368 0 0 0 34.32-26.68l62.282-244.86a133.07 133.07 0 0 0-25.743 3.259zm0 0" fill="#decaad"/>
</svg>