<svg height="455pt" viewBox="0 -1 455.006 455" width="455pt" xmlns="http://www.w3.org/2000/svg">
  <path d="M425.559 22.36c-1.946 23.128-26.051 26.78-26.051 26.78 20.695.973 25.851 28.118 25.851 28.118C425.801 57.902 452 48.855 452 48.855c-19.625-1.175-26.441-26.496-26.441-26.496zm0 0" fill="#d7e057"/>
  <path d="M452.184 45.86c-17.211-1.032-23.668-24.051-23.727-24.282a3.015 3.015 0 0 0-3.168-2.203 2.994 2.994 0 0 0-2.719 2.734c-1.718 20.43-22.625 23.926-23.507 24.063a3.002 3.002 0 0 0 .309 5.965c18.054.847 23 25.437 23.046 25.683a3.008 3.008 0 0 0 3.2 2.426 3.004 3.004 0 0 0 2.75-2.918c.382-17.02 24.378-25.555 24.62-25.637a3.003 3.003 0 0 0-.805-5.832zM425.05 66.55c-2.715-6.26-7.418-13.816-15.176-17.753 5.863-2.809 12.816-7.824 16.402-16.547 3.102 6.145 8.399 13.762 16.672 17.445-6.015 3.282-13.847 8.813-17.898 16.856zm0 0" fill="#3a312a"/>
  <path d="M382.16 56.32c-1.375 16.36-18.426 18.946-18.426 18.946 14.637.687 18.286 19.886 18.286 19.886.312-13.691 18.843-20.09 18.843-20.09-13.879-.832-18.703-18.742-18.703-18.742zm0 0" fill="#d7e057"/>
  <path d="M401.043 72.066c-11.531-.691-15.945-16.37-15.988-16.527a3.02 3.02 0 0 0-3.16-2.207 3.002 3.002 0 0 0-2.723 2.738c-1.16 13.743-15.293 16.133-15.883 16.227a3.002 3.002 0 0 0 .309 5.965c12.07.566 15.449 17.285 15.476 17.449a3.005 3.005 0 0 0 3.196 2.43 3 3 0 0 0 2.753-2.922c.262-11.418 16.66-17.266 16.825-17.324a2.997 2.997 0 0 0-.805-5.829zm-19.168 13.59c-1.848-3.773-4.68-7.894-8.895-10.558 3.707-2.086 7.395-5.262 9.743-9.836 2.113 3.75 5.308 7.91 9.879 10.449-3.696 2.2-7.977 5.48-10.727 9.945zm0 0" fill="#3a312a"/>
  <path d="M382.16 3.008c-1.375 16.355-18.426 18.941-18.426 18.941 14.637.688 18.286 19.887 18.286 19.887.312-13.691 18.843-20.09 18.843-20.09-13.879-.832-18.703-18.738-18.703-18.738zm0 0" fill="#d7e057"/>
  <path d="M401.043 18.75c-11.531-.691-15.945-16.371-15.988-16.531a3.013 3.013 0 0 0-3.16-2.2 2.995 2.995 0 0 0-2.723 2.735c-1.16 13.742-15.293 16.133-15.883 16.226a2.998 2.998 0 0 0-2.547 3.125 2.998 2.998 0 0 0 2.856 2.84c12.07.57 15.449 17.29 15.476 17.453a3.005 3.005 0 0 0 3.196 2.43 3.002 3.002 0 0 0 2.753-2.922c.262-11.418 16.66-17.27 16.825-17.324a3 3 0 0 0-.805-5.832zm-19.168 13.59c-1.848-3.77-4.68-7.895-8.895-10.559 3.707-2.082 7.395-5.261 9.743-9.836 2.113 3.75 5.308 7.91 9.879 10.45-3.696 2.203-7.977 5.48-10.727 9.945zm0 0" fill="#3a312a"/>
  <path d="M258.27 349.348c14.175-9.82 18.859-28.985 10.285-44.328a33.721 33.721 0 0 0-11.918-12.372c8.07-10.414 9.644-25.046 2.812-37.28-3.683-6.587-9.25-11.411-15.633-14.302 5.438-9.886 5.836-22.234-.074-32.82-4.66-8.336-12.308-13.914-20.879-16.187 4.223-9.422 4.13-20.625-1.289-30.325-5.926-10.605-16.734-16.742-28.047-17.273 3.91-9.274 3.688-20.191-1.597-29.649-6.028-10.785-17.082-16.94-28.582-17.289 1.562-7.671.527-15.898-3.594-23.265-7.258-12.996-21.774-19.305-35.64-16.774a33.566 33.566 0 0 0-4.188-19.136c-8.649-15.485-27.621-21.52-43.492-14.309-.344-.758-.676-1.496-1.079-2.219C66.23 5.492 45.602-.348 29.293 8.766 12.965 17.886 7.125 38.52 16.246 54.848c.406.722.883 1.43 1.344 2.12C3.562 66.809-1 85.856 7.54 101.142a33.51 33.51 0 0 0 14.105 13.593c-9.426 10.485-11.665 26.153-4.407 39.145 4.121 7.371 10.578 12.566 17.934 15.258-5.735 9.976-6.285 22.617-.258 33.402C40.2 212 49.38 217.91 59.328 219.445c-5.48 9.91-5.918 22.332.008 32.938 5.418 9.699 14.91 15.652 25.148 16.992-2.554 8.492-1.812 17.934 2.844 26.27 5.914 10.582 16.64 16.714 27.914 17.265-.887 6.953.301 14.223 3.985 20.809 6.832 12.234 20.12 18.566 33.218 17.148a33.76 33.76 0 0 0 4.285 16.633c8.473 15.164 26.868 21.25 42.516 14.727.18.37.344.753.547 1.117 6.27 11.226 17.969 17.496 29.992 17.316l.02-.012c5.457-.043 10.976-1.441 16.058-4.28a33.56 33.56 0 0 0 12.453-12.048c6.079-10.062 6.73-23 .582-34.004-.195-.343-.418-.64-.628-.968zm0 0" fill="#d7e057"/>
  <path d="M271.172 303.555a36.822 36.822 0 0 0-10.313-11.68 36.808 36.808 0 0 0 1.207-37.969c-3.347-5.992-8.23-10.844-14.234-14.176 4.742-10.605 4.25-22.707-1.469-32.945-4.36-7.797-11.21-13.605-19.523-16.625 3.437-9.918 2.523-20.64-2.645-29.89-5.59-10.004-15.324-16.688-26.543-18.41 2.88-9.536 1.809-19.731-3.101-28.512-5.813-10.407-16.02-17.176-27.735-18.575a36.82 36.82 0 0 0-4.437-21.984c-7.086-12.68-20.91-19.91-35.16-18.738a36.647 36.647 0 0 0-4.668-17.168c-8.793-15.73-27.946-22.7-44.656-16.672-4.81-8.52-12.637-14.676-22.055-17.344-9.473-2.683-19.418-1.52-28.008 3.278-17.719 9.902-24.098 32.367-14.238 50.097C-.06 67.47-3.856 86.895 4.922 102.605c2.965 5.301 7.129 9.735 12.176 12.973-8.473 11.547-9.555 27.09-2.473 39.766a36.802 36.802 0 0 0 16.395 15.3c-4.954 10.711-4.536 22.958 1.277 33.36 4.91 8.785 13.031 15.043 22.66 17.59-4.414 10.453-3.828 22.246 1.762 32.25 5.168 9.25 13.82 15.648 24.07 17.922-1.789 8.66-.437 17.539 3.922 25.34 5.719 10.238 15.77 17 27.289 18.519-.313 6.86 1.258 13.566 4.61 19.555 6.702 12 19.43 19.207 32.964 18.875a36.91 36.91 0 0 0 4.54 14.906c8.679 15.535 27.105 22.531 43.722 16.992a36.732 36.732 0 0 0 31.434 17.707c.187 0 .375 0 .558-.004.078 0 .156-.004.23-.011 6.004-.09 11.965-1.7 17.262-4.66a36.799 36.799 0 0 0 13.563-13.114c6.578-10.89 7.043-24.445 1.324-35.723 13.895-11.218 17.813-30.757 8.965-46.593zm-14.61 43.324a3 3 0 0 0-.82 4.082l.254.383c.094.14.188.277.277.437 5.391 9.649 5.192 21.524-.53 30.992a30.777 30.777 0 0 1-11.352 10.973c-4.489 2.512-9.543 3.86-14.621 3.899-.083.003-.168.007-.25.015-11.286.106-21.622-5.941-27.118-15.777-.097-.176-.18-.363-.265-.543l-.207-.434a3 3 0 0 0-2.696-1.683c-.386 0-.777.078-1.152.234-14.445 6.023-31.098.254-38.742-13.418a30.934 30.934 0 0 1-3.903-15.16 3 3 0 0 0-3.32-2.996 30.821 30.821 0 0 1-30.281-15.625c-3.219-5.766-4.473-12.32-3.625-18.969a3.006 3.006 0 0 0-.676-2.305 3.011 3.011 0 0 0-2.152-1.07c-10.719-.527-20.23-6.406-25.442-15.734-4.109-7.348-5.027-15.852-2.59-23.942a3.006 3.006 0 0 0-2.48-3.84c-9.789-1.28-18.14-6.925-22.922-15.48-5.222-9.352-5.222-20.574 0-30.023a3 3 0 0 0-2.168-4.418c-9.488-1.457-17.601-7.075-22.254-15.403-5.324-9.531-5.234-20.914.243-30.445.44-.766.52-1.688.214-2.52a3.001 3.001 0 0 0-1.785-1.793 30.856 30.856 0 0 1-16.344-13.902c-6.433-11.512-4.816-25.848 4.016-35.676a2.991 2.991 0 0 0 .715-2.55A2.983 2.983 0 0 0 23 112.061a30.59 30.59 0 0 1-12.848-12.386C2.41 85.82 6.348 68.516 19.31 59.422a3 3 0 0 0 .765-4.133c-.418-.617-.847-1.254-1.21-1.906-8.302-14.86-2.966-33.7 11.886-42 7.191-4.02 15.512-4.992 23.45-2.746 7.929 2.25 14.51 7.453 18.534 14.648.352.625.637 1.27.965 1.992a3 3 0 0 0 3.973 1.493c14.465-6.567 31.875-.84 39.633 13.039a30.6 30.6 0 0 1 3.812 17.437c-.074.93.29 1.84.977 2.465a2.986 2.986 0 0 0 2.55.727c12.989-2.38 26.051 3.765 32.485 15.28 3.59 6.419 4.75 13.954 3.273 21.204-.18.867.04 1.77.586 2.46a3.003 3.003 0 0 0 2.262 1.138c10.988.332 20.727 6.222 26.055 15.753 4.652 8.329 5.18 18.176 1.453 27.024a3.006 3.006 0 0 0 .226 2.766 3.006 3.006 0 0 0 2.395 1.398c10.789.504 20.344 6.39 25.57 15.738 4.781 8.559 5.207 18.63 1.168 27.633a2.976 2.976 0 0 0 .031 2.52 3.005 3.005 0 0 0 1.938 1.609c8.164 2.164 14.926 7.406 19.031 14.754 5.207 9.328 5.235 20.508.063 29.914a3.012 3.012 0 0 0-.215 2.394c.265.79.847 1.438 1.61 1.786 6.1 2.761 11.03 7.265 14.25 13.03a30.828 30.828 0 0 1-2.563 33.977 3.002 3.002 0 0 0-.582 2.38c.156.84.66 1.574 1.39 2.019a30.87 30.87 0 0 1 10.86 11.27c7.793 13.933 3.765 31.3-9.368 40.394zm0 0" fill="#3a312a"/>
  <path d="M398.113 144.656c-20.93-4.945-41.898 8.016-46.843 28.946-4.942 20.93 8.02 41.898 28.949 46.84 20.926 4.945 41.898-8.016 46.84-28.946 4.945-20.93-8.016-41.898-28.946-46.84zm0 0" fill="#8ac6dd"/>
  <path d="M389.156 140.578c-23.125 0-41.937 18.817-41.937 41.942 0 23.12 18.812 41.937 41.937 41.937s41.938-18.816 41.938-41.937c0-23.125-18.813-41.942-41.938-41.942zm0 77.879c-19.816 0-35.937-16.125-35.937-35.937 0-19.817 16.12-35.942 35.937-35.942s35.938 16.125 35.938 35.942c0 19.812-16.121 35.937-35.938 35.937zm0 0" fill="#3a312a"/>
  <path d="M363.488 186.938c0 21.503-17.433 38.937-38.937 38.937-21.504 0-38.938-17.434-38.938-38.938 0-21.507 17.434-38.94 38.938-38.94s38.937 17.433 38.937 38.94zm0 0" fill="#8ac6dd"/>
  <path d="M324.55 144.996c-23.124 0-41.937 18.816-41.937 41.941 0 23.122 18.809 41.938 41.938 41.938 23.125 0 41.937-18.816 41.937-41.938 0-23.125-18.812-41.94-41.937-41.94zm0 77.879c-19.816 0-35.937-16.125-35.937-35.938 0-19.816 16.121-35.94 35.938-35.94 19.816 0 35.937 16.124 35.937 35.94 0 19.813-16.12 35.938-35.937 35.938zm0 0" fill="#3a312a"/>
  <path d="M280.707 154.035c-16.664-57.02-56.93-100.695-84.316-97.082-14.989 1.977-30.215 18.527-41.047 42.899l-9.836 29.304a195.866 195.866 0 0 0-5.375 43.418c-.656 59.242 43.566 87.574 82.387 82.453 38.816-5.117 74.804-44.125 58.187-100.992zm0 0" fill="#fce8cb"/>
  <path d="M283.586 153.191C266.984 96.375 226.03 50.02 196 53.977c-15.664 2.066-31.887 18.757-43.398 44.656a3 3 0 1 0 5.484 2.438c10.656-23.973 25.125-39.352 38.7-41.145 24.23-3.184 64.03 36.726 81.042 94.949 9.215 31.535 1.078 53.602-7.371 66.563-10.824 16.609-28.89 28.054-48.332 30.617-19.453 2.57-39.121-3.508-53.96-16.668-11.622-10.305-25.4-29.559-25.032-62.778a192.439 192.439 0 0 1 5.289-42.754 2.995 2.995 0 0 0-2.211-3.617 3.006 3.006 0 0 0-3.621 2.215 198.104 198.104 0 0 0-5.457 44.086c-.395 35.484 14.496 56.203 27.05 67.336 13.715 12.16 31.22 18.758 49.16 18.758 3.184 0 6.38-.207 9.567-.63 21.152-2.792 40.805-15.233 52.574-33.292 9.137-14.012 17.957-37.797 8.102-71.52zm0 0" fill="#3a312a"/>
  <path d="M256.602 177.32c-3.172-24.062-25.254-41-49.32-37.828-24.067 3.176-41 25.258-37.829 49.324 3.176 24.067 25.258 41.004 49.324 37.829 24.063-3.172 41-25.258 37.825-49.325zm0 0" fill="#d7e057"/>
  <path d="M259.578 176.93c-1.64-12.434-8.023-23.485-17.976-31.118-9.957-7.632-22.293-10.93-34.715-9.292-25.664 3.386-43.793 27.023-40.41 52.69 3.113 23.59 23.335 40.817 46.52 40.817 2.038 0 4.097-.132 6.171-.406 12.434-1.64 23.484-8.023 31.121-17.976 7.629-9.954 10.926-22.282 9.29-34.715zm-14.055 31.062c-6.656 8.68-16.293 14.246-27.14 15.68-22.38 2.957-43.004-12.86-45.957-35.246-2.953-22.39 12.86-43.004 35.246-45.957 1.82-.242 3.633-.36 5.441-.36 8.953 0 17.614 2.922 24.84 8.461 8.68 6.66 14.246 16.297 15.676 27.145 1.43 10.844-1.45 21.597-8.106 30.277zm0 0" fill="#3a312a"/>
  <path d="M424.738 212.418c-19.87-8.23-42.648 1.203-50.879 21.07-8.23 19.871 1.207 42.649 21.075 50.88 19.867 8.23 42.648-1.208 50.875-21.075 8.23-19.867-1.204-42.648-21.07-50.875zm0 0" fill="#8ac6dd"/>
  <path d="M409.824 206.457c-23.125 0-41.941 18.816-41.941 41.938 0 23.125 18.816 41.937 41.941 41.937s41.938-18.812 41.938-41.937c0-23.122-18.813-41.938-41.938-41.938zm0 77.875c-19.816 0-35.941-16.121-35.941-35.937 0-19.817 16.12-35.938 35.941-35.938 19.817 0 35.938 16.121 35.938 35.938 0 19.82-16.121 35.937-35.938 35.937zm0 0" fill="#3a312a"/>
  <path d="M339.438 189.605c-21.504 0-38.938 17.434-38.938 38.938 0 21.508 17.434 38.937 38.938 38.937 21.507 0 38.94-17.43 38.94-38.937 0-21.504-17.433-38.938-38.94-38.938zm0 0" fill="#8ac6dd"/>
  <path d="M339.438 186.605c-23.122 0-41.938 18.817-41.938 41.938 0 23.125 18.813 41.937 41.938 41.937 23.128 0 41.94-18.812 41.94-41.937 0-23.121-18.815-41.938-41.94-41.938zm0 77.875c-19.813 0-35.938-16.12-35.938-35.937 0-19.816 16.125-35.938 35.938-35.938 19.816 0 35.94 16.122 35.94 35.938 0 19.816-16.124 35.937-35.94 35.937zm0 0" fill="#3a312a"/>
  <path d="M274.516 184.95c-21.504 0-38.938 17.433-38.938 38.937 0 21.508 17.434 38.937 38.938 38.937 21.507 0 38.941-17.43 38.941-38.937 0-21.504-17.437-38.938-38.941-38.938zm0 0" fill="#8ac6dd"/>
  <path d="M274.516 181.95c-23.121 0-41.938 18.816-41.938 41.937 0 23.125 18.813 41.937 41.938 41.937 23.129 0 41.941-18.812 41.941-41.937 0-23.121-18.816-41.938-41.941-41.938zm0 77.874c-19.813 0-35.938-16.12-35.938-35.937 0-19.817 16.125-35.938 35.938-35.938 19.816 0 35.941 16.121 35.941 35.938 0 19.816-16.125 35.937-35.941 35.937zm0 0" fill="#3a312a"/>
  <path d="M237.613 10.402l21.555-7.41 23.707 68.961-21.555 7.41zm0 0" fill="#d7e057"/>
  <path d="M285.707 70.988L262.004 2.031A2.998 2.998 0 0 0 258.19.168l-21.554 7.406a2.99 2.99 0 0 0-1.719 1.524 2.968 2.968 0 0 0-.14 2.289l23.699 68.96a3.015 3.015 0 0 0 2.84 2.024c.328 0 .656-.055.972-.164l21.555-7.41a2.997 2.997 0 0 0 1.863-3.809zm-22.535 4.575l-21.75-63.286 15.883-5.457 21.75 63.285zm0 0" fill="#3a312a"/>
  <path d="M301.703 122.438l14.09-71.547 22.363 4.402-14.09 71.547zm0 0" fill="#d7e057"/>
  <path d="M338.73 52.363l-22.363-4.402a2.995 2.995 0 0 0-3.527 2.363l-14.086 71.543a3 3 0 0 0 2.363 3.524l22.363 4.406c.196.035.387.055.583.055a2.993 2.993 0 0 0 2.94-2.418l14.09-71.547a3.003 3.003 0 0 0-2.363-3.524zm-17.03 70.965l-16.477-3.246 12.93-65.656 16.476 3.246zm0 0" fill="#3a312a"/>
  <path d="M49.293 132.07l-16.11-10.05-12.382-7.727c-32.434 51.984-16.59 120.418 35.398 152.855 51.98 32.434 120.418 16.586 152.856-35.398zm0 0" fill="#f16c7a"/>
  <path d="M210.637 229.207L34.773 119.477l-12.386-7.73a3 3 0 0 0-4.133.96c-33.258 53.305-16.95 123.73 36.355 156.988 18.32 11.43 39.028 17.317 60.102 17.317 8.621 0 17.309-.989 25.922-2.98 29.652-6.868 54.855-24.872 70.965-50.692a3.001 3.001 0 0 0-.961-4.133zm-71.36 48.977c-28.09 6.503-57.03 1.683-81.492-13.582-49.648-30.977-65.418-95.985-35.992-146.157l183.09 114.239c-15.305 23.113-38.492 39.218-65.606 45.5zm0 0" fill="#3a312a"/>
  <path d="M84.816 154.234l-7.39-4.609-5.68-3.547c-14.879 23.852-7.61 55.242 16.238 70.125 23.848 14.879 55.243 7.61 70.121-16.238zm0 0" fill="#fce8cb"/>
  <g fill="#3a312a">
    <path d="M159.695 197.418l-86.363-53.883a3 3 0 0 0-4.133.953c-15.73 25.215-8.02 58.528 17.196 74.254a53.539 53.539 0 0 0 28.44 8.16c17.997 0 35.61-8.992 45.813-25.351a3 3 0 0 0-.953-4.133zM89.57 213.656c-21.55-13.449-28.715-41.347-16.793-63.394l3.059 1.91 78.055 48.7c-14.559 20.401-42.766 26.233-64.32 12.784zm0 0"/>
    <path d="M54.867 149.813c-.96-1.239-3.55-4.18-7.262-5.211-2.574-.715-5.378.136-5.898 2.003-.52 1.868 1.395 4.016 4.02 4.762 3.703 1.055 7.445-.152 8.91-.719a.545.545 0 0 0 .23-.835zm0 0"/>
    <path d="M50.648 175.043c-1.293-.887-4.664-2.887-8.511-2.73-2.668.113-5.078 1.785-4.996 3.722.078 1.938 2.562 3.39 5.285 3.293 3.851-.133 7.043-2.43 8.258-3.422a.54.54 0 0 0-.036-.863zm0 0"/>
    <path d="M57.621 202.32c-1.559-.187-5.473-.394-8.809 1.532-2.316 1.335-3.671 3.933-2.699 5.613.969 1.68 3.844 1.816 6.211.469 3.348-1.907 5.11-5.422 5.727-6.864a.54.54 0 0 0-.43-.75zm0 0"/>
    <path d="M81.25 227.879a.543.543 0 0 0-.73-.465c-1.465.563-5.024 2.2-7.079 5.461-1.425 2.262-1.414 5.191.227 6.227 1.64 1.03 4.246-.188 5.715-2.485 2.074-3.246 1.996-7.176 1.867-8.738zm0 0"/>
    <path d="M170.043 220.996c-2.559-2.879-6.336-3.918-7.875-4.23a.544.544 0 0 0-.648.574c.132 1.562.699 5.453 3.273 8.316 1.82 2.031 4.59 2.805 6.039 1.52 1.453-1.29.984-4.18-.789-6.18zm0 0"/>
    <path d="M147.555 238.09c-1.551-3.528-4.828-5.672-6.192-6.445a.543.543 0 0 0-.793.347c-.355 1.531-1.015 5.403.555 8.922 1.113 2.488 3.512 4.078 5.285 3.3 1.774-.78 2.219-3.679 1.145-6.124zm0 0"/>
    <path d="M113.797 237.371a.542.542 0 0 0-.863-.059c-1.024 1.188-3.403 4.317-3.645 8.16-.168 2.72 1.215 5.243 3.152 5.376 1.934.129 3.672-2.23 3.856-4.895.262-3.844-1.649-7.266-2.5-8.582zm0 0"/>
  </g>
  <path d="M3 250.25a194.132 194.132 0 0 0 15.54 58.781c10.241 23.36 24.94 44.602 43.12 62.801 40.88 41 99.32 66.64 164.219 66.64 64.902 0 123.34-25.64 164.219-66.64 18.183-18.2 32.882-39.441 43.12-62.8a194.132 194.132 0 0 0 15.54-58.782zm0 0" fill="#87796f"/>
  <path d="M450.984 248.242a2.998 2.998 0 0 0-2.226-.992H84.148a3 3 0 0 0 0 6H445.41a191.404 191.404 0 0 1-14.937 54.578c-10.028 22.871-24.325 43.695-42.496 61.887-41.668 41.789-100.75 65.758-162.098 65.758-61.344 0-120.426-23.97-162.098-65.762-18.168-18.188-32.465-39.012-42.496-61.89A191.341 191.341 0 0 1 6.348 253.25h47.925a3 3 0 0 0 0-6H3a3 3 0 0 0-2.984 3.305 197.298 197.298 0 0 0 15.777 59.68c10.328 23.558 25.043 44.995 43.742 63.714 42.79 42.914 103.418 67.524 166.348 67.524 62.926 0 123.554-24.61 166.344-67.52 18.699-18.723 33.414-40.16 43.742-63.71a197.412 197.412 0 0 0 15.777-59.688 3.006 3.006 0 0 0-.762-2.313zm0 0" fill="#3a312a"/>
  <path d="M150.531 426.332h150.7v23.461h-150.7zm0 0" fill="#87796f"/>
  <path d="M301.23 423.332H150.531a3 3 0 0 0-3 3v23.461a3 3 0 0 0 3 3h150.7a3 3 0 0 0 3-3v-23.461a3 3 0 0 0-3-3zm-3 23.461H153.531v-17.461h144.7zm0 0" fill="#3a312a"/>
  <path d="M18.54 309.035c10.241 23.36 24.94 44.598 43.12 62.797h328.438c18.183-18.2 32.882-39.437 43.12-62.797zm0 0" fill="#f16c7a"/>
  <path d="M435.73 307.39a2.995 2.995 0 0 0-2.511-1.355h-74.371a3 3 0 0 0 0 6h69.718c-9.73 20.856-23.074 39.945-39.714 56.797H62.906c-16.64-16.852-29.984-35.941-39.715-56.797h305.72a3 3 0 0 0 0-6H18.542a2.99 2.99 0 0 0-2.512 1.356 3.004 3.004 0 0 0-.238 2.847c10.328 23.559 25.043 44.996 43.746 63.715a2.975 2.975 0 0 0 2.121.879h328.442c.796 0 1.558-.312 2.12-.879 18.7-18.719 33.419-40.156 43.747-63.715.406-.925.316-2-.239-2.847zm0 0" fill="#3a312a"/>
  <path d="M416.219 253.25c-2.18 18.203-6.961 35.922-14.18 52.781h29.18c7.242-16.86 12.02-34.578 14.18-52.781zm0 0" fill="#695b51"/>
  <path d="M353.48 374.832c-23.28 21.762-51.44 38.262-82.12 48.5h29.18c30.679-10.238 58.858-26.738 82.12-48.5zm0 0" fill="#695b51"/>
  <path d="M399.379 312.035c-9.738 20.86-23.078 39.938-39.719 56.797h29.2c16.64-16.86 29.98-35.937 39.699-56.797zm0 0" fill="#d34e5c"/>
</svg>