<svg height="454pt" viewBox="0 -1 454.807 454" width="454pt" xmlns="http://www.w3.org/2000/svg">
  <path d="M127.219 147.137c-56.172 0-101.707 45.535-101.707 101.707 0 .258.015.515.02.773h203.374c.004-.258.024-.515.024-.773-.004-56.172-45.54-101.707-101.711-101.707zm0 0" fill="#d7e057"/>
  <path d="M127.219 144.137c-57.739 0-104.711 46.972-104.711 104.707l.02.793a3.002 3.002 0 0 0 3 2.98h203.374a3.002 3.002 0 0 0 3-2.98l.024-.793c0-57.735-46.973-104.707-104.707-104.707zm-98.684 102.48c1.188-53.402 45-96.48 98.684-96.48s97.492 43.078 98.68 96.48zm0 0" fill="#3a312a"/>
  <path d="M127.219 176.246c-40.215 0-72.817 32.602-72.817 72.816 0 .188.012.368.016.555h145.605c0-.187.012-.37.012-.554 0-40.215-32.601-72.817-72.816-72.817zm0 0" fill="#d7e057"/>
  <path d="M127.219 173.246c-41.805 0-75.817 34.012-75.817 75.816l.016.586a3 3 0 0 0 3 2.97h145.605c1.657 0 3.004-1.509 3.004-3.165l.008-.39c0-41.805-34.012-75.817-75.816-75.817zm-69.774 73.371c1.293-37.367 32.094-67.37 69.774-67.37 37.625 0 68.394 29.917 69.761 67.37zm0 0" fill="#3a312a"/>
  <path d="M127.219 204.777c-24.578 0-44.504 19.922-44.504 44.5 0 .114.008.227.008.34h88.988c0-.113.008-.226.008-.34 0-24.574-19.922-44.5-44.5-44.5zm0 0" fill="#d7e057"/>
  <path d="M127.219 201.777c-26.196 0-47.504 21.309-47.504 47.504l.008.336c0 1.66 1.343 3 3 3h88.988c1.621 0 2.945-1.449 3.004-3.062l.004-.274c0-26.195-21.305-47.504-47.5-47.504zM85.8 246.617c1.375-21.648 19.426-38.84 41.418-38.84 21.969 0 40.008 17.164 41.41 38.84zm0 0" fill="#3a312a"/>
  <path d="M330.633 147.137c-56.172 0-101.707 45.535-101.707 101.707 0 .258.02.515.02.773h203.378c0-.258.02-.515.02-.773 0-56.172-45.54-101.707-101.711-101.707zm0 0" fill="#d7e057"/>
  <path d="M330.633 144.137c-57.735 0-104.707 46.972-104.707 104.707l.02.773a3 3 0 0 0 3 3h203.378a3.002 3.002 0 0 0 3-2.98l.02-.793c0-57.735-46.973-104.707-104.711-104.707zm-98.684 102.48c1.188-53.402 45-96.48 98.684-96.48 53.683 0 97.496 43.078 98.683 96.48zm0 0" fill="#3a312a"/>
  <path d="M330.633 176.246c-40.215 0-72.817 32.602-72.817 72.816 0 .188.016.368.016.555h145.606c0-.187.011-.37.011-.554 0-40.215-32.597-72.817-72.816-72.817zm0 0" fill="#d7e057"/>
  <path d="M330.633 173.246c-41.801 0-75.817 34.012-75.817 75.816l.016.555a3 3 0 0 0 3 3h145.606c1.644 0 2.988-1.504 3.003-3.148l.012-.406c-.004-41.805-34.012-75.817-75.82-75.817zm-69.77 73.371c1.293-37.367 32.094-67.37 69.774-67.37 37.617 0 68.379 29.901 69.761 67.37zm0 0" fill="#3a312a"/>
  <path d="M330.633 204.777c-24.578 0-44.5 19.922-44.5 44.5 0 .114.008.227.008.34h88.984c0-.113.008-.226.008-.34.004-24.574-19.922-44.5-44.5-44.5zm0 0" fill="#d7e057"/>
  <path d="M330.633 201.777c-26.192 0-47.5 21.309-47.5 47.504l.008.336c0 1.66 1.343 3 3 3h88.988c1.617 0 2.945-1.449 3-3.062.004-.04.008-.239.008-.274 0-26.195-21.309-47.504-47.504-47.504zm-41.418 44.84c1.379-21.648 19.43-38.84 41.418-38.84 21.972 0 40.012 17.164 41.414 38.84zm0 0" fill="#3a312a"/>
  <path d="M228.926 147.137c-56.172 0-101.707 45.535-101.707 101.707 0 .258.015.515.02.773h203.378c0-.258.016-.515.016-.773 0-56.172-45.535-101.707-101.707-101.707zm0 0" fill="#d7e057"/>
  <path d="M228.926 144.137c-57.735 0-104.707 46.972-104.707 104.707l.02.793a3.002 3.002 0 0 0 3 2.98h203.374a3.002 3.002 0 0 0 3-2.98l.02-.793c0-57.735-46.969-104.707-104.707-104.707zm-98.684 102.48c1.192-53.402 45-96.48 98.684-96.48 53.683 0 97.496 43.078 98.683 96.48zm0 0" fill="#3a312a"/>
  <path d="M228.926 176.246c-40.215 0-72.817 32.602-72.817 72.816 0 .188.012.368.016.555h145.602c.003-.187.015-.37.015-.554 0-40.215-32.601-72.817-72.816-72.817zm0 0" fill="#d7e057"/>
  <path d="M228.926 173.246c-41.805 0-75.813 34.012-75.813 75.816l.012.586a3.002 3.002 0 0 0 3 2.97H301.73c1.645 0 2.989-1.505 3.004-3.15l.008-.405c0-41.805-34.012-75.817-75.816-75.817zm-69.774 73.371c1.297-37.367 32.098-67.37 69.774-67.37 37.617 0 68.379 29.901 69.762 67.37zm0 0" fill="#3a312a"/>
  <path d="M228.926 204.777c-24.578 0-44.5 19.922-44.5 44.5 0 .114.008.227.008.34h88.988c0-.113.008-.226.008-.34 0-24.574-19.926-44.5-44.504-44.5zm0 0" fill="#d7e057"/>
  <path d="M228.926 201.777c-26.196 0-47.5 21.309-47.5 47.504l.008.387a3.003 3.003 0 0 0 3 2.95h88.988c1.61 0 2.937-1.419 3-3.028.004-.04.008-.27.008-.309 0-26.195-21.313-47.504-47.504-47.504zm-41.418 44.84c1.379-21.648 19.43-38.84 41.418-38.84 21.969 0 40.008 17.157 41.414 38.84zm0 0" fill="#3a312a"/>
  <path d="M6.047 249.625a194.138 194.138 0 0 0 15.539 58.777c10.238 23.36 24.941 44.602 43.121 62.801 40.879 41 99.32 66.64 164.219 66.64 64.898 0 123.34-25.64 164.219-66.64 18.18-18.2 32.882-39.441 43.12-62.8a194.138 194.138 0 0 0 15.54-58.778zm0 0" fill="#fce8cb"/>
  <path d="M454.031 247.613a3 3 0 0 0-2.226-.988H6.047a3 3 0 0 0-2.984 3.3A197.298 197.298 0 0 0 18.84 309.61c10.324 23.551 25.043 44.989 43.742 63.711 42.79 42.914 103.418 67.524 166.344 67.524 62.93 0 123.558-24.61 166.344-67.52 18.703-18.726 33.421-40.164 43.742-63.71a197.359 197.359 0 0 0 15.781-59.688 3.006 3.006 0 0 0-.762-2.313zM433.52 307.2c-10.024 22.867-24.32 43.692-42.497 61.887-41.668 41.789-100.75 65.758-162.097 65.758-61.344 0-120.426-23.969-162.094-65.762-18.176-18.191-32.473-39.016-42.5-61.887a191.48 191.48 0 0 1-14.937-54.57h439.062a191.413 191.413 0 0 1-14.937 54.574zm0 0" fill="#3a312a"/>
  <path d="M153.578 425.703h150.7v23.461h-150.7zm0 0" fill="#fce8cb"/>
  <path d="M304.273 422.703H153.578a3 3 0 0 0-3 3v23.461c0 1.66 1.344 3 3 3h150.7c1.656 0 3-1.34 3-3v-23.46a3.004 3.004 0 0 0-3.005-3zm-3 23.461H156.578v-17.46h144.7v17.46zm0 0" fill="#3a312a"/>
  <path d="M444.164 3.531L241.695 6.95l-29.59.5-198.87 3.36a7.31 7.31 0 0 0-7.188 7.308 7.31 7.31 0 0 0 7.187 7.305l430.93 7.281a7.313 7.313 0 0 0 7.434-7.308v-14.56a7.31 7.31 0 0 0-7.434-7.304zm0 0" fill="#87796f"/>
  <path d="M451.516 3.488c-1.989-1.953-4.59-3.011-7.403-2.957L241.641 3.95a3 3 0 1 0 .05 6h.051l202.469-3.418c1.101-.062 2.266.418 3.094 1.235a4.27 4.27 0 0 1 1.289 3.074v14.555a4.283 4.283 0 0 1-1.29 3.074c-.831.816-1.906 1.285-3.093 1.234L13.28 22.422c-2.336-.035-4.234-1.969-4.234-4.305 0-2.336 1.898-4.273 4.234-4.308l198.871-3.36a3.007 3.007 0 0 0 2.953-3.05c-.03-1.657-1.332-2.977-3.05-2.95L13.184 7.81c-5.59.093-10.137 4.718-10.137 10.308 0 5.586 4.547 10.211 10.137 10.305l430.93 7.281h.175c2.723 0 5.281-1.047 7.227-2.96a10.235 10.235 0 0 0 3.078-7.348V10.84c0-2.79-1.094-5.399-3.078-7.352zm0 0" fill="#3a312a"/>
  <path d="M441.336 51.05L10.508 39.298a7.31 7.31 0 0 0-7.504 6.984 7.313 7.313 0 0 0 6.855 7.617l430.188 26.297a7.311 7.311 0 0 0 7.75-6.972l.64-14.543a7.303 7.303 0 0 0-7.101-7.63zm0 0" fill="#87796f"/>
  <path d="M451.438 58.813a10.242 10.242 0 0 0-2.754-7.481 10.239 10.239 0 0 0-7.262-3.281L10.59 36.297c-.098-.004-.192-.004-.281-.004-5.465 0-10.055 4.363-10.297 9.852-.25 5.585 4.09 10.406 9.668 10.746l430.187 26.297c.215.015.43.019.645.019 2.547 0 4.968-.926 6.879-2.648a10.223 10.223 0 0 0 3.402-7.207zm-6.641 14.273c0 .004 0 .004 0 0a4.258 4.258 0 0 1-1.418 3.012 4.314 4.314 0 0 1-3.149 1.101L10.043 50.902c-2.332-.144-4.145-2.156-4.04-4.492.102-2.293 2.02-4.117 4.302-4.117h.12l430.833 11.758a4.271 4.271 0 0 1 3.035 1.367 4.274 4.274 0 0 1 1.148 3.129zm0 0" fill="#3a312a"/>
  <path d="M44.074 3.402c-5.957 0-10.785 4.828-10.785 10.79v119.19c0 5.958 4.828 10.786 10.785 10.786s10.785-4.828 10.785-10.785V14.187c0-5.957-4.828-10.785-10.785-10.785zm0 0" fill="#d7e057"/>
  <path d="M44.074.402c-7.601 0-13.785 6.184-13.785 13.79v119.19c0 7.602 6.184 13.786 13.785 13.786 7.602 0 13.785-6.184 13.785-13.785V14.19C57.86 6.586 51.676.402 44.074.402zm7.785 132.98c0 4.294-3.492 7.786-7.785 7.786s-7.785-3.492-7.785-7.785V14.19c0-4.293 3.492-7.789 7.785-7.789s7.785 3.496 7.785 7.79zm0 0" fill="#3a312a"/>
  <path d="M65.645 3.402c-5.957 0-10.786 4.828-10.786 10.79v47.05c0 5.957 4.828 10.79 10.786 10.79s10.785-4.829 10.785-10.79V14.188c0-5.958-4.828-10.786-10.785-10.786zm0 0" fill="#d7e057"/>
  <path d="M65.645.402c-7.602 0-13.786 6.184-13.786 13.79v47.05c0 7.602 6.184 13.79 13.786 13.79 7.601 0 13.785-6.188 13.785-13.79v-47.05c0-7.606-6.184-13.79-13.785-13.79zm7.785 60.84c0 4.293-3.493 7.79-7.785 7.79s-7.786-3.493-7.786-7.79v-47.05c0-4.294 3.493-7.79 7.786-7.79s7.785 3.496 7.785 7.79zm0 0" fill="#3a312a"/>
  <path d="M87.215 3.402c-5.957 0-10.785 4.828-10.785 10.79v47.05c0 5.957 4.828 10.79 10.785 10.79S98 67.202 98 61.241V14.188C98 8.23 93.172 3.402 87.215 3.402zm0 0" fill="#d7e057"/>
  <path d="M87.215.402c-7.602 0-13.785 6.184-13.785 13.79v47.05c0 7.602 6.183 13.79 13.785 13.79 7.601 0 13.785-6.188 13.785-13.79v-47.05C101 6.585 94.816.401 87.215.401zM95 61.242c0 4.293-3.492 7.79-7.785 7.79s-7.785-3.493-7.785-7.79v-47.05c0-4.294 3.492-7.79 7.785-7.79S95 9.898 95 14.192zm0 0" fill="#3a312a"/>
  <path d="M108.785 3.402C102.828 3.402 98 8.23 98 14.192v47.05c0 5.957 4.824 10.79 10.785 10.79 5.953 0 10.785-4.829 10.785-10.79V14.188c0-5.958-4.828-10.786-10.785-10.786zm0 0" fill="#d7e057"/>
  <path d="M108.785.402C101.184.402 95 6.586 95 14.192v47.05c0 7.602 6.184 13.79 13.785 13.79 7.602 0 13.785-6.188 13.785-13.79v-47.05c0-7.606-6.183-13.79-13.785-13.79zm7.785 60.84c0 4.293-3.492 7.79-7.785 7.79-4.297 0-7.785-3.493-7.785-7.79v-47.05c0-4.294 3.488-7.79 7.785-7.79 4.293 0 7.785 3.496 7.785 7.79zm0 0" fill="#3a312a"/>
  <path d="M419.266 252.625c-2.18 18.2-6.961 35.918-14.18 52.777h29.18c7.242-16.859 12.02-34.578 14.18-52.777zm0 0" fill="#decaad"/>
  <path d="M356.527 374.203c-23.28 21.762-51.441 38.262-82.12 48.5h29.179c30.68-10.238 58.86-26.738 82.121-48.5zm0 0" fill="#decaad"/>
  <path d="M21.586 308.402c10.238 23.36 24.941 44.602 43.121 62.801h328.438c18.18-18.2 32.882-39.441 43.12-62.8zm0 0" fill="#f16c7a"/>
  <path d="M438.777 306.762a2.999 2.999 0 0 0-2.511-1.36h-74.368a3 3 0 0 0 0 6h69.72c-9.727 20.856-23.071 39.942-39.72 56.801H65.953c-16.644-16.86-29.988-35.945-39.719-56.8h305.723a3 3 0 0 0 0-6H21.59c-1.016 0-1.961.511-2.516 1.359a3.013 3.013 0 0 0-.234 2.847c10.324 23.551 25.043 44.989 43.746 63.715a2.991 2.991 0 0 0 2.121.88h328.441c.797 0 1.559-.317 2.122-.88 18.703-18.726 33.421-40.164 43.746-63.715.406-.93.316-2-.239-2.847zm0 0" fill="#3a312a"/>
  <path d="M402.426 311.402c-9.739 20.86-23.078 39.942-39.719 56.801h29.2c16.64-16.86 29.98-35.941 39.698-56.8zm0 0" fill="#d34e5c"/>
</svg>