<svg height="452pt" viewBox="0 0 452 452.786" width="452pt" xmlns="http://www.w3.org/2000/svg">
  <path d="M107.004 4.027V168.43c16.32 4.5 30.98 14.058 42.121 27.257V4.028zm0 0" fill="#fce8cb"/>
  <path d="M149.125 1.027h-42.121a3 3 0 0 0-3 3v78.766a3 3 0 0 0 6 0V7.027h36.121v180.965c-10.23-10.222-22.559-17.683-36.121-21.82v-52.484a3 3 0 0 0-6 0v54.738c0 1.351.902 2.535 2.203 2.89 15.707 4.332 29.758 13.43 40.625 26.305a3.004 3.004 0 0 0 2.29 1.066 3 3 0 0 0 3-3V4.028c.003-1.656-1.34-3-2.997-3zm0 0" fill="#3a312a"/>
  <path d="M149.125 44.906v150.781c1.18 1.38 2.3 2.82 3.398 4.282 8.903 11.98 22.32 22.16 38.743 29.52V44.905zm0 0" fill="#fce8cb"/>
  <path d="M191.262 41.906h-42.137a3 3 0 0 0-3 3v150.781c0 .715.258 1.407.719 1.95 1.242 1.457 2.41 2.976 3.273 4.12 9.16 12.333 22.961 22.868 39.918 30.47a2.999 2.999 0 0 0 2.86-.223 2.998 2.998 0 0 0 1.367-2.516V44.906a3 3 0 0 0-3-3zm-3 182.852c-14.082-6.969-25.543-16.102-33.344-26.598a97.46 97.46 0 0 0-2.797-3.566V47.906h36.14zm0 0" fill="#3a312a"/>
  <path d="M191.262 90.906v138.582c12.52 5.66 26.781 9.66 42.12 11.578V90.906zm0 0" fill="#fce8cb"/>
  <path d="M233.387 87.906h-42.125a3 3 0 0 0-3 3v138.582c0 1.176.691 2.246 1.765 2.735 13.078 5.91 27.543 9.89 42.985 11.824a2.982 2.982 0 0 0 2.355-.73 2.99 2.99 0 0 0 1.02-2.247V90.91a3.004 3.004 0 0 0-3-3.004zm-3 149.727c-12.895-1.89-25.024-5.281-36.125-10.098V93.906h36.125zm0 0" fill="#3a312a"/>
  <path d="M233.387 27.488v213.578c6.84.864 13.879 1.32 21.078 1.32 7.2 0 14.238-.437 21.058-1.3V27.488zm0 0" fill="#fce8cb"/>
  <path d="M275.523 24.488h-42.136c-1.657 0-3 1.34-3 3v213.578a2.996 2.996 0 0 0 2.625 2.977 172.77 172.77 0 0 0 21.453 1.344c7.262 0 14.472-.446 21.437-1.325a2.999 2.999 0 0 0 2.621-2.976V27.484a2.997 2.997 0 0 0-3-2.996zm-3 213.93c-11.703 1.277-24.058 1.3-36.136-.02V30.488h36.136zm0 0" fill="#3a312a"/>
  <path d="M275.523 90.906v150.18c15.34-1.938 29.602-5.938 42.122-11.578V90.906zm0 0" fill="#fce8cb"/>
  <path d="M317.645 87.906h-42.122a3 3 0 0 0-3 3v150.18c0 .863.375 1.684 1.016 2.254a3.012 3.012 0 0 0 2.363.722c15.438-1.953 29.899-5.93 42.977-11.82a3.001 3.001 0 0 0 1.766-2.738V90.906a3 3 0 0 0-3-3zm-3 139.645c-11.106 4.804-23.227 8.191-36.122 10.097V93.906h36.122zm0 0" fill="#3a312a"/>
  <path d="M317.645 4.027v225.48c16.421-7.378 29.84-17.558 38.761-29.538a85.578 85.578 0 0 1 3.38-4.262V4.027zm0 0" fill="#fce8cb"/>
  <path d="M359.785 1.027h-42.14a3 3 0 0 0-3 3v225.48a3 3 0 0 0 4.23 2.735c16.95-7.617 30.762-18.16 39.941-30.492a86.905 86.905 0 0 1 3.266-4.113 3 3 0 0 0 .703-1.93V4.027a3 3 0 0 0-3-3zm-3 193.594a85.418 85.418 0 0 0-2.789 3.555c-7.8 10.476-19.27 19.613-33.351 26.597V7.027h36.136v187.594zm0 0" fill="#3a312a"/>
  <path d="M359.785 44.906v150.801c11.14-13.219 25.8-22.758 42.121-27.277V44.906zm0 0" fill="#fce8cb"/>
  <path d="M401.902 41.906h-42.12c-1.653 0-3 1.344-3 3v150.801c0 1.262.788 2.387 1.972 2.82.336.121.683.18 1.027.18.871 0 1.715-.375 2.297-1.066 10.832-12.86 24.883-21.961 40.621-26.325a2.998 2.998 0 0 0 2.203-2.89V44.906c0-1.656-1.34-3-3-3zm-3 124.274c-13.578 4.152-25.91 11.617-36.12 21.828V47.906h36.12zm0 0" fill="#3a312a"/>
  <path d="M65.21 22.355C63.263 45.48 39.165 49.133 39.165 49.133c20.691.976 25.848 28.117 25.848 28.117.441-19.352 26.644-28.402 26.644-28.402-19.629-1.176-26.445-26.493-26.445-26.493zm0 0" fill="#d7e057"/>
  <path d="M91.836 45.852C74.629 44.824 68.172 21.805 68.109 21.57a3 3 0 0 0-5.886.532c-1.72 20.43-22.625 23.93-23.508 24.066a3.002 3.002 0 0 0 .309 5.965c18.054.847 22.996 25.433 23.042 25.683a3.005 3.005 0 0 0 3.2 2.422 2.992 2.992 0 0 0 2.75-2.918c.386-17.015 24.382-25.55 24.625-25.636a3.002 3.002 0 0 0-.805-5.832zM64.703 66.543c-2.715-6.258-7.418-13.813-15.176-17.75 5.864-2.809 12.82-7.828 16.407-16.547 3.101 6.14 8.398 13.758 16.668 17.445-6.016 3.278-13.848 8.809-17.899 16.852zm0 0" fill="#3a312a"/>
  <path d="M21.816 56.316C20.438 72.672 3.391 75.258 3.391 75.258c14.632.687 18.28 19.887 18.28 19.887.313-13.688 18.845-20.09 18.845-20.09-13.88-.832-18.7-18.739-18.7-18.739zm0 0" fill="#d7e057"/>
  <path d="M40.695 72.059C29.165 71.37 24.754 55.69 24.711 55.53c-.383-1.402-1.715-2.316-3.164-2.203a2.998 2.998 0 0 0-2.723 2.734C17.668 69.805 3.531 72.2 2.941 72.293a2.994 2.994 0 0 0-2.543 3.121 2.995 2.995 0 0 0 2.856 2.84c12.066.57 15.445 17.289 15.476 17.453a2.999 2.999 0 0 0 5.946-.492C24.938 83.797 41.34 77.949 41.5 77.89a3 3 0 0 0-.805-5.832zm-19.168 13.59c-1.847-3.77-4.68-7.895-8.89-10.56 3.707-2.081 7.39-5.257 9.738-9.831 2.117 3.746 5.309 7.906 9.883 10.445-3.7 2.203-7.98 5.484-10.73 9.945zm0 0" fill="#3a312a"/>
  <path d="M21.816 3C20.438 19.36 3.391 21.941 3.391 21.941c14.632.688 18.28 19.887 18.28 19.887.313-13.687 18.845-20.09 18.845-20.09C26.636 20.906 21.816 3 21.816 3zm0 0" fill="#d7e057"/>
  <path d="M40.695 18.742c-11.53-.687-15.941-16.37-15.984-16.527a3.001 3.001 0 0 0-5.887.531C17.668 16.488 3.531 18.883 2.941 18.976a3.002 3.002 0 0 0 .313 5.965c12.066.567 15.445 17.286 15.476 17.45a2.999 2.999 0 0 0 5.946-.493C24.938 30.48 41.34 24.633 41.5 24.574a2.997 2.997 0 0 0 1.992-3.242 3.007 3.007 0 0 0-2.797-2.59zm-19.168 13.59c-1.847-3.77-4.68-7.89-8.89-10.559 3.707-2.082 7.39-5.257 9.738-9.832 2.117 3.746 5.309 7.91 9.883 10.446-3.7 2.203-7.98 5.484-10.73 9.945zm0 0" fill="#3a312a"/>
  <path d="M423.8 165.527h-.46c-26.563 0-51.082 13.121-66.942 34.442-18.718 25.16-57.34 42.418-101.937 42.418-44.602 0-83.223-17.258-101.941-42.418-15.86-21.32-40.38-34.442-66.942-34.442h-.46c-15.759 0-27.74 14.141-25.18 29.68l10.703 64.781 3.879 23.461 12.3 74.617 3.88 23.461 7.737 46.903c2.043 12.316 12.68 21.36 25.18 21.36h261.684c12.5 0 23.136-9.044 25.18-21.36l7.738-46.903 3.879-23.46 12.3-74.618 3.88-23.46 10.702-64.782c2.56-15.539-9.421-29.68-25.18-29.68zm0 0" fill="#d7e057"/>
  <path d="M445.54 172.59a28.47 28.47 0 0 0-21.74-10.063h-.46c-27.219 0-52.496 12.996-69.348 35.649-18.914 25.422-57.05 41.21-99.535 41.21s-80.621-15.792-99.535-41.21c-16.852-22.656-42.125-35.649-69.344-35.649h-.46a28.464 28.464 0 0 0-21.74 10.063 28.471 28.471 0 0 0-6.398 23.105l38.5 233.22c2.29 13.831 14.122 23.87 28.137 23.87h261.68a28.431 28.431 0 0 0 28.14-23.87l38.497-233.22h.004a28.471 28.471 0 0 0-6.399-23.105zm.48 22.129l-38.5 233.219a22.451 22.451 0 0 1-22.22 18.847H123.618a22.444 22.444 0 0 1-22.215-18.847l-38.5-233.22a22.5 22.5 0 0 1 5.051-18.245 22.472 22.472 0 0 1 17.164-7.946h.461c25.305 0 48.824 12.11 64.535 33.227 20.024 26.914 60.004 43.629 104.348 43.629 44.34 0 84.32-16.719 104.344-43.63 15.71-21.116 39.234-33.226 64.535-33.226h.46a22.486 22.486 0 0 1 17.169 7.946 22.527 22.527 0 0 1 5.05 18.246zm0 0" fill="#3a312a"/>
  <path d="M74.52 283.45l12.3 74.616 3.88 23.461h327.519l3.879-23.46 12.3-74.618zm0 0" fill="#f16c7a"/>
  <path d="M436.684 281.504a2.994 2.994 0 0 0-2.286-1.055h-81.312a3 3 0 0 0 0 6h77.777l-15.191 92.078H93.242L78.055 286.45h245.75a3 3 0 0 0 0-6H74.52c-.883 0-1.715.383-2.29 1.055a3.006 3.006 0 0 0-.671 2.433l16.18 98.079a2.999 2.999 0 0 0 2.956 2.511H418.22a2.999 2.999 0 0 0 2.957-2.511l16.183-98.079a3.022 3.022 0 0 0-.675-2.433zm0 0" fill="#3a312a"/>
  <path d="M440.965 176.469a22.493 22.493 0 0 0-17.16-7.942h-.461c-6.16 0-12.2.72-18.059 2.102a22.887 22.887 0 0 1 7.66 5.84 22.413 22.413 0 0 1 5.36 14.558c0 1.243-.102 2.461-.301 3.7l-14.14 85.722h28l14.16-85.722c.203-1.239.3-2.457.3-3.7 0-5.3-1.86-10.441-5.36-14.558zm0 0" fill="#b9c239"/>
  <path d="M386.664 384.527l-7.16 43.403a22.444 22.444 0 0 1-22.219 18.86h28.02c11.058 0 20.398-7.923 22.218-18.86l7.16-43.403zm0 0" fill="#b9c239"/>
  <path d="M402.844 286.45l-15.18 92.077h28.02l15.18-92.078zm0 0" fill="#d34e5c"/>
</svg>