<svg xmlns="http://www.w3.org/2000/svg" width="186.708" height="186.708" viewBox="0 0 186.708 186.708">
  <path d="M178.44 84.965c-.116-.252-.274-.414-.425-.597.844-1.245.361-3.37-1.331-4.068-2.573-1.061-5.259-1.861-7.985-2.552 8.213-6.352 12.229-20.897 2.694-27.872-1.214-.888-8.731-3.854-8.604-5.197.239-2.523.303-6.162-.945-8.535-2.311-4.394-6.402-4.944-10.814-5.013-2.398-11.672-12.027-19.63-24.646-13.455-6.682 3.269-11.854-1.798-18.689.432-5.287 1.724-6.501 8.248-7.119 13.05.012-2.151.03-4.303.02-6.454-.006-1.232-.805-2.101-1.908-2.507-8.938-3.289-16.042-3.365-24.96.026-.99.376-2.022 1.285-1.889 2.481.92 8.264 1.707 16.546 2.47 24.829-6.65-9.265-16.72-17.291-26.909-15.588C49.164 22.446 46.104.826 30.991.022c-14.81-.788-11.779 19.209-8.597 29.256-3.778-.387-7.68.419-11.479.503-1.705.038-2.644 1.808-1.882 3.279 5.296 10.213 14.042 14.66 24.547 11.716-1.791 4.172-2.195 9.015-1.5 13.38 1.501 9.432 8.236 16.987 15.649 22.595-9.632.422-19.229 1.233-28.444 3.108-.258-.454-.766-.757-1.477-.605-13.873 2.964-14.535 17.781-11.491 29.3.353 1.334 1.497 1.989 2.783 2.119 2.657.269 5.314.497 7.969.7 2.307 2.676 4.35 7.879 5.672 10.399 2.95 5.627 4.629 11.889 6.505 17.929 3.115 10.028 5.907 19.72 10.03 29.403.191.449.487.746.822.977.12.351.355.679.764.919 27.623 16.229 71.655 12.997 101.689 5.772.496-.119.9-.309 1.256-.529 1.716.555 3.921-.036 4.775-2.203 7.887-19.998 11.807-41.01 17.178-61.732 13.024-3.618 21.077-13.095 12.68-31.343zm-77.868-52.454c.395.788 1.881.771 2.165-.244 2.321-8.298 9.688-12.362 17.753-7.512.648.39 1.534.4 2.182 0 9.988-6.166 22.955-5.905 23.465 9.019.05 1.458 1.172 2.644 2.658 2.658 7.701.073 8.821 5.107 8.115 11.856-.117 1.121.924 2.482 2.033 2.67 16.739 2.838 12.51 15.145 4.527 24.707a2.613 2.613 0 0 0-.477.875 91.792 91.792 0 0 0-10.822-1.172c5.869-4.589 9.734-12.296 6.488-19.629-3.378-7.629-10.71-8.688-17.392-5.817-1.62-4.601-3.88-8.878-8.841-10.546-4.44-1.493-8.627 2.271-11.696 5.928-1.993-5.803-6.015-12.146-12.778-8.817-3.574 1.76-6.013 4.707-7.537 8.13.078-4.034.127-8.07.157-12.106zm-.464 25.822c.41-.144.761-.48.774-.973.146-5.247 1.483-10.233 4.807-14.371 6.377-7.94 10.857 1.554 11.955 7.7.275 1.538 2.686 2.233 3.679.971 2.12-2.694 4.021-4.963 6.918-6.901 5.751-3.846 8.255 7.169 8.914 9.681.444 1.687 2.429 2.426 3.912 1.591 5.328-3.001 11.037-3.508 12.964 3.303 1.74 6.15-3.969 10.976-8.392 13.875-.841.551-1.185 1.295-1.23 2.038-15.219.229-30.889 2.876-44.599 4.277-.115.012-.201.056-.303.086.198-7.093.409-14.186.601-21.277zM79.634 25.43c22.377-8.647 15.254 21.178 14.793 32.786-.562 14.163-.946 28.331-1.02 42.504-2.682-.796-3.15-.723-8.113-1.038-1.04-.065-1.782.348-2.269.968-.093-11.729-.663-23.412-1.467-35.128-.35-5.116-7.446-37.958-1.924-40.092zM35.053 42.043c-8.66 1.396-15.53-1.565-20.418-8.333 3.454-.488 6.947-1.02 10.269.146 1.319.463 2.98-1.048 2.418-2.418-2.434-5.929-8.585-26.59 3.667-26.961 12.635-.383 12.162 21.815 12.355 29.298.012.474.206.86.474 1.178-1.833.741-3.659 1.795-5.456 3.287-1.32 1.095-2.404 2.392-3.309 3.803zm6.471.427c4.222-4.265 10.571-4.272 15.753-1.931 8.821 3.984 13.371 12.708 18.098 20.595a1912.08 1912.08 0 0 0 1.79 18.832c-8.059.275-16.355.346-24.666.614a1.318 1.318 0 0 0-.478-.831c-10.046-8.07-22.307-25.35-10.497-37.279zm101.015 131.169a4.168 4.168 0 0 0-2.016-.214c-32.354 4.47-63.835 5.617-95.91-1.165.096-.427.111-.878-.091-1.367-4.948-12.011-6.664-25.253-11.348-37.465-1.784-4.652-3.824-9.629-6.91-13.571-1.764-2.254-3.223-3.306-4.766-4.188 41.173 2.645 82.205-1.531 123.332 2.126 5.948.528 11.971.359 17.389-.664-7.848 18.382-13.712 37.447-19.68 56.508zm13.644-62.043c-11.451.43-22.994-1.767-34.371-2.761-19.721-1.723-40.302 1.378-60.101 1.736-11.58.21-23.168.014-34.739-.446-2.425-.097-15.115.808-16.122-2.778-2.085-7.428.224-14.009 5.22-19.09.097.008.179.044.285.036 20.056-1.569 41.82 2.582 61.401-2.56.752 7.007 1.585 14.003 2.565 20.982.224 1.596 2.73 1.154 2.741-.371.004-.564-.012-1.125-.011-1.688.487.63 1.225 1.072 2.244 1.093l10.134 1.504c1.783.489 3.559-.889 3.574-2.723.063-7.423.23-14.843.428-22.263.121.039.234.088.378.1 24.403 2.067 49.336 2.005 73.823 2.863-.31.562-.467 1.215-.344 1.906 2.883 16.08.124 23.811-17.105 24.46z"/>
  <path d="M140.284 121.421c-2.979 2.961-5.981 6.088-9.013 9.238-3.321-2.812-6.876-5.386-10.449-7.979-1.918-1.393-4.408 1.835-2.535 3.287 3.33 2.583 6.611 5.233 9.788 7.999-3.999 4.114-8.098 8.216-12.394 12.036-.564-.484-1.135-.965-1.688-1.456-3.536-3.136-7.05-6.3-10.565-9.46.863-.677 1.719-1.372 2.597-2.022 1.547-1.145.149-3.729-1.544-2.641-1.211.776-2.371 1.616-3.541 2.442-3.584-3.215-7.172-6.427-10.8-9.594-1.655-1.444-4.073.923-2.429 2.43 3.401 3.113 6.766 6.266 10.127 9.422-4.617 3.5-9.002 7.283-13.359 11.099a426.973 426.973 0 0 0-14.213-11.79c3.268-2.518 6.614-4.944 10.17-7.135 1.298-.8.168-2.572-1.165-1.993-4.219 1.833-8.05 4.266-11.648 7.03a390.658 390.658 0 0 0-11.762-8.808 1.903 1.903 0 0 0-1.01-.733c-.535-.383-1.066-.785-1.601-1.164-1.115-.789-2.542 1.053-1.463 1.896.097.076.189.161.286.237-3.2 1.794-6.252 3.853-7.94 7.249-.825 1.66 1.566 3.098 2.502 1.463 1.838-3.208 5.152-4.772 8.38-6.271a220.269 220.269 0 0 1 9.677 8.48c-4.269 3.61-8.23 7.64-12.12 11.66-1.618-1.416-3.244-2.828-4.824-4.267-.743-.678-1.777.357-1.101 1.101a566.651 566.651 0 0 1 4.324 4.82l-1 1.032c-1.085 1.118.589 2.792 1.708 1.708.311-.302.63-.59.942-.89 3.794 4.246 7.723 8.497 11.927 12.332-1.681 1.105-3.379 2.188-5.153 3.174-.964.536-.295 2.241.765 1.815a61.272 61.272 0 0 0 6.514-3.093c2.235 1.906 4.547 3.688 6.977 5.246 1.463.939 3.002-1.162 1.821-2.359-1.684-1.707-3.448-3.353-5.213-4.996 4.508-2.809 8.737-6.094 12.858-9.546 3.14 3.016 6.308 5.993 9.554 8.855-1.902.804-3.834 1.542-5.833 2.138-1.275.379-.736 2.208.542 1.967 2.587-.488 5.134-1.213 7.643-2.104 4.151 3.551 8.413 6.942 12.922 9.977 1.786 1.202 3.685-1.44 2.244-2.908a436.292 436.292 0 0 0-9.556-9.4c5.158-2.438 10.11-5.605 14.813-9.211 2.711 2.608 5.472 5.236 8.334 7.728-.587.77-1.204 1.516-1.731 2.337-1.108 1.726 1.519 3.136 2.688 1.571.474-.635.976-1.244 1.494-1.838 2.853 2.329 5.813 4.476 8.955 6.232 1.813 1.014 3.56-1.328 2.179-2.824-2.326-2.521-4.875-4.877-7.509-7.162 2.813-2.739 5.69-5.412 7.744-8.829.999-1.661-1.487-3.689-2.74-2.113-2.403 3.024-5.147 5.759-7.746 8.61-2.671-2.226-5.387-4.407-8.06-6.608 4.397-3.674 8.539-7.694 12.402-11.798 2.392 2.221 4.728 4.5 6.918 6.934 1.445 1.607 4.182-.501 2.991-2.309-1.976-3.003-4.282-5.643-6.799-8.062 2.915-3.257 5.703-6.521 8.22-9.681 1.391-1.739-.842-4.151-2.502-2.501zm-72.332 38.394c-4.402-3.988-8.949-7.858-13.44-11.754 4.076-3.875 8.221-7.632 12.552-11.163 4.477 4.242 8.882 8.586 13.313 12.893-4.026 3.49-8.102 6.915-12.425 10.024zm30.262-1.178a440.313 440.313 0 0 0-10.827-9.865c4.336-3.784 8.612-7.644 13-11.265 3.546 3.336 7.085 6.68 10.637 10.009.448.42.898.854 1.348 1.281-4.47 3.719-9.138 7.122-14.158 9.84z"/>
  <path d="M48.015 53.149c-2.384 4.004-5.472 8.437-5.547 13.282-.022 1.436 2.089 1.395 2.2 0 .343-4.294 3.661-8.245 5.339-12.117.577-1.331-1.211-2.477-1.992-1.165z"/>
  <path d="M57.324 59.69c-5.269 3.275-9.885 7.335-9.842 13.997.013 1.989 2.933 1.951 3.059 0 .329-5.087 4.462-8.581 8.3-11.402 1.525-1.119.164-3.639-1.517-2.595z"/>
  <path d="M64.561 69.281c-2.621 2.132-5.91 3.646-8.889 5.201-1.361.711-.166 2.69 1.192 2.039 3.249-1.556 6.781-2.969 9.253-5.684.972-1.066-.47-2.439-1.556-1.556z"/>
</svg>