<svg xmlns="http://www.w3.org/2000/svg" viewBox="0 0 45.1 45.1">
  <path d="M42.7 29c3.1-3.1 3.1-8.3 0-11.4-.6-.6-1.3-1-2-1.4 0-2.1-.8-4.2-2.4-5.8-.7-.7-1.4-1.2-2.2-1.5-.4-.8-.9-1.6-1.5-2.2-1.6-1.6-3.7-2.4-5.8-2.4-.4-.7-.8-1.4-1.4-2-3.1-3.1-8.3-3.2-11.4 0-.1.1-.1.2-.2.3C12.7.7 8.6 1.1 5.9 3.8c-3.2 3.1-3.2 8.3 0 11.4 1.2 1.2 2.6 1.9 4.1 2.2-.2 1.8-2 14.8-9.5 24-.8.9-.7 2.3.2 3.1.8.8 2.1.8 2.9.1 9.4-7.6 22.2-9.4 24-9.6.3 1.5 1 2.9 2.2 4.1 3.1 3.2 8.3 3.1 11.4 0 2.7-2.7 3.1-6.8 1.2-9.9.1 0 .2-.1.3-.2zm-30.1-3.6c.4.9.9 1.8 1.5 2.7l-3.5 3.5c.8-2.2 1.5-4.3 2-6.2zm.9 9.2l3.6-3.6c.9.6 1.8 1.1 2.8 1.5-1.9.5-4.1 1.2-6.4 2.1z" fill="#90b052"/>
</svg>