<svg xmlns="http://www.w3.org/2000/svg" viewBox="0 0 512 512">
  <path d="M422 173.4c-13.2 9.7-33.8 21.9-57.8 25.1l-10.4 1.4-4.9-9.3c-11.2-21.4-13.2-45.3-12.9-61.7-19.9.6-39-4.7-53.8-10.5C262.1 175 238.3 235.6 202 296c-42.7 71-95.6 129.7-161.5 179.6-8.9 6.7-10.7 19.4-4.1 28.3 4.6 6.1 12.1 9.1 19.7 7.8 73.5-13 312.8-72.3 407.2-299.3-13.7-8.8-29.8-21.7-41.3-39z" fill="#d13834"/>
  <path d="M468.9 106.2c-7.4-14.9-18.1-27.5-31.1-37l32.7-53.6L444.9 0l-33.8 55.4-.9-.3c-42.6-14.2-88.7 2-114 36.7 15.1 5.6 34.6 10 52.7 5.5l22.6-5.7-4.1 22.9c0 .3-4.6 27.2 3.8 52.1 25.2-7.5 44.5-26.8 44.7-27l16.3-16.4 8.4 21.5c6.5 16.7 20.6 29.8 33.6 38.9 8.7-25.7 6.8-53.1-5.3-77.4z" fill="#90b052"/>
</svg>