<svg height="512pt" viewBox="0 -8 512 512" width="512pt" xmlns="http://www.w3.org/2000/svg">
  <path d="M0 418.691c.043 14.121 11.48 25.559 25.602 25.602h42.664a49.473 49.473 0 0 1 2.988-17.066 46.82 46.82 0 0 1 10.152-17.067H34.133a8.533 8.533 0 0 1-8.531-8.535v-8.531C11.46 393.094 0 404.554 0 418.69zm0 0"/>
  <path d="M486.398 393.094h-8.53v8.531a8.534 8.534 0 0 1-8.536 8.535h-38.738a46.82 46.82 0 0 1 10.152 17.067 49.473 49.473 0 0 1 2.988 17.066h42.664c14.141 0 25.602-11.461 25.602-25.602-.043-14.12-11.48-25.558-25.602-25.597zm0 0"/>
  <path d="M273.758 146.742a72.974 72.974 0 0 1 18.558-35.25H307.2a8.534 8.534 0 1 0 0-17.066H187.734a8.533 8.533 0 1 0 0 17.066h14.883a72.61 72.61 0 0 1 18.645 36.285c-112.004 15.32-195.528 110.934-195.66 223.98v21.337h452.265v-21.336c-.144-116.293-88.379-213.567-204.11-225.016zm-3.192-35.25a80.37 80.37 0 0 0-13.847 34.227h-.121c-1.621-.086-3.243-.086-4.864-.086-4.523 0-8.96.172-13.398.43h-.11a80.414 80.414 0 0 0-13.874-34.57zm-127.12 261.035a8.777 8.777 0 0 1-6.91 3.5h-68.27c-4.711 0-8.532-3.824-8.532-8.535 0-53.164 17.579-72.277 19.54-74.324a8.804 8.804 0 0 1 6.058-2.477h51.203a8.298 8.298 0 0 1 6.57 3.157 8.463 8.463 0 0 1 1.79 7.086 138.622 138.622 0 0 0-.254 63.914 8.528 8.528 0 0 1-1.196 7.68zm26.28-163.328a142.058 142.058 0 0 0-16.124 55.895c0 4.71-3.82 8.531-8.536 8.531h-42.668a8.525 8.525 0 0 1-7.246-4.07 8.525 8.525 0 0 1-.347-8.301c17.922-35.926 61.097-62.125 62.976-63.234a8.532 8.532 0 0 1 10.145 1.132 8.53 8.53 0 0 1 1.8 10.047zm0 0"/>
  <path d="M117.59 256.559h19.625a146.043 146.043 0 0 1 5.805-26.625 161.494 161.494 0 0 0-25.43 26.625zm0 0"/>
  <path d="M89.516 307.758c-3.586 5.547-11.266 20.906-12.547 51.199h48.984a166.448 166.448 0 0 1 .426-51.2zm0 0"/>
  <path d="M119.465 410.16c-16.219-.004-30.203 11.41-33.45 27.305a35.79 35.79 0 0 0-.683 6.828c0 18.852 15.285 34.133 34.133 34.133 18.851 0 34.137-15.281 34.137-34.133a35.79 35.79 0 0 0-.684-6.828c-3.246-15.895-17.23-27.309-33.453-27.305zm0 0"/>
  <path d="M81.406 478.426H51.2a8.532 8.532 0 0 0-8.531 8.531 8.533 8.533 0 0 0 8.531 8.535h68.266a50.764 50.764 0 0 1-38.059-17.066zm0 0"/>
  <path d="M17.066 478.555h-8.53a8.533 8.533 0 1 0 0 17.066h8.53a8.534 8.534 0 1 0 0-17.066zm0 0"/>
  <path d="M167.68 427.227a49.473 49.473 0 0 1 2.988 17.066h170.664a49.473 49.473 0 0 1 2.988-17.066 46.775 46.775 0 0 1 10.157-17.067H157.523a46.775 46.775 0 0 1 10.157 17.067zm0 0"/>
  <path d="M392.535 410.16c-16.223-.004-30.207 11.41-33.453 27.305a35.79 35.79 0 0 0-.684 6.828c0 18.852 15.286 34.133 34.137 34.133 18.848 0 34.133-15.281 34.133-34.133a35.79 35.79 0 0 0-.684-6.828c-3.246-15.895-17.23-27.309-33.449-27.305zm0 0"/>
  <path d="M354.477 478.426h-30.211a8.532 8.532 0 0 0-8.532 8.531 8.533 8.533 0 0 0 8.532 8.535h68.27a50.752 50.752 0 0 1-38.06-17.066zm0 0"/>
  <path d="M281.602 478.555a8.533 8.533 0 1 0 0 17.066h8.53a8.534 8.534 0 1 0 0-17.066zm0 0"/>
  <path d="M165.035 60.46c5.633-1.023 11.18-2.3 16.727-3.667 8.66-2.3 17.472-4.012 26.367-5.121 2.902-.254 5.8-.426 8.617-.426-4.539-3.039-9.7-5.02-15.101-5.8a149.626 149.626 0 0 0-19.204-1.282c-17.066-.426-36.351-.852-51.199-15.273-2.644-2.563-5.12-5.293-7.594-8.024a66.805 66.805 0 0 0-16.382-14.504A57.38 57.38 0 0 0 78.676.047c-7.047.262-14.051 1.23-20.906 2.902 1.62.426 3.242.938 4.863 1.363C82.09 9.86 100.69 16.43 113.922 35.887c1.621 2.304 3.07 4.695 4.433 6.996a79.435 79.435 0 0 0 7 10.242c6.91 8.277 20.223 10.75 39.68 7.336zm0 0"/>
  <path d="M74.156 94.68A367.254 367.254 0 0 0 64 89.902 59.352 59.352 0 0 0 30.465 87l-2.817.512a128.137 128.137 0 0 1 15.7 7.086 131.123 131.123 0 0 1 20.824 14.675 94.043 94.043 0 0 0 23.293 15.36 43.719 43.719 0 0 0 42.328-3.156 45.11 45.11 0 0 0 8.363-8.278 122.32 122.32 0 0 1-34.39-6.058 224.365 224.365 0 0 1-29.61-12.461zm0 0"/>
</svg>