<svg height="512pt" viewBox="-43 0 511 512" width="512pt" xmlns="http://www.w3.org/2000/svg">
  <path d="M139.168 277.332C62.707 277.332.5 215.125.5 138.668.5 62.207 62.707 0 139.168 0c76.457 0 138.664 62.207 138.664 138.668 0 76.457-62.207 138.664-138.664 138.664zm0-245.332C80.352 32 32.5 79.852 32.5 138.668c0 58.816 47.852 106.664 106.668 106.664 58.816 0 106.664-47.848 106.664-106.664S197.984 32 139.168 32zm0 0"/>
  <path d="M357.832 512c-4.094 0-8.191-1.559-11.305-4.691-6.25-6.254-6.25-16.387 0-22.637l39.168-39.168c10.39-10.39 10.39-27.305 0-37.719L218.355 240.45c-6.25-6.25-6.25-16.386 0-22.636s16.383-6.25 22.637 0l167.336 167.34c22.871 22.867 22.871 60.074 0 82.964l-39.187 39.192A15.89 15.89 0 0 1 357.832 512zm0 0"/>
  <path d="M272.5 426.668a15.879 15.879 0 0 1-11.309-4.695c-6.25-6.25-6.25-16.383 0-22.633l69.336-69.336c6.25-6.25 16.383-6.25 22.633 0 6.25 6.254 6.25 16.387 0 22.637l-69.332 69.332a15.956 15.956 0 0 1-11.328 4.695zm0 0"/>
</svg>