<svg id="Capa_1" xmlns="http://www.w3.org/2000/svg" viewBox="0 0 511.6 511.6">
  <style>
    .st0{fill:#e6e9ed}.st1{fill:#fff}.st2{opacity:.2}.st7{fill:#3a3847}
  </style>
  <path class="st0" d="M4 100v71.9h.2c0 13.2 10.7 24 24 24 13.2 0 24-10.7 24-24V100H4z"/>
  <path class="st1" d="M12.2 171.9H12V100H4v71.9h.2c0 13.2 10.7 24 24 24 1.4 0 2.7-.2 4-.4-11.4-1.9-20-11.7-20-23.6z"/>
  <path d="M44 171.9h.2V100h8v71.9H52c0 13.2-10.7 24-24 24-1.4 0-2.7-.2-4-.4 11.3-1.9 20-11.7 20-23.6z"/>
  <path class="st0" d="M36 194.4v193.3c0 4.4-3.6 8-8 8s-8-3.6-8-8V194.4c2.5 1 5.2 1.4 8 1.4 2.8.1 5.5-.4 8-1.4z"/>
  <path class="st1" d="M36 195.9v-1.4c-1.3.5-2.6.9-4 1.1 1.3.2 2.6.3 4 .3z"/>
  <path class="st1" d="M28 387.7V195.9c-2.8 0-5.5-.5-8-1.4v193.3c0 4.4 3.6 8 8 8 1.5 0 2.8-.5 4-1.2-2.4-1.5-4-4-4-6.9z"/>
  <path d="M326.8 371.7c-18.7 10.2-40.2 16-63 16-22.8 0-44.3-5.8-63-16h-63.6c31.4 34.3 76.4 56 126.6 56 50.2 0 95.2-21.7 126.6-56h-63.6z" opacity=".3"/>
  <path class="st0" d="M475.6 387.7V100s32 8 32 40v95.9h-16v151.9c0 4.4-3.6 8-8 8-4.4-.1-8-3.7-8-8.1z"/>
  <path d="M475.6 100v3.1c9.5 4.7 24 15.3 24 36.8v95.9h8v-95.9c0-32-32-39.9-32-39.9z"/>
  <path class="st1" d="M483.6 387.7V103.1c-4.6-2.3-8-3.1-8-3.1v287.8c0 4.4 3.6 8 8 8 1.5 0 2.8-.5 4-1.2-2.3-1.5-4-4-4-6.9z"/>
  <path class="st0" d="M263.8 76c94.9 0 171.9 77 171.9 171.9s-77 171.9-171.9 171.9-171.9-77-171.9-171.9c0-95 77-171.9 171.9-171.9zm131.9 171.8c0-72.8-59.1-131.9-131.9-131.9-72.8 0-131.9 59.1-131.9 131.9 0 72.8 59.1 131.9 131.9 131.9 72.8 0 131.9-59 131.9-131.9z"/>
  <path class="st1" d="M107.9 247.8c0-92.2 72.7-167.3 163.9-171.5-2.7-.1-5.3-.4-8-.4-94.9 0-171.9 77-171.9 171.9s77 171.9 171.9 171.9c2.7 0 5.3-.3 8-.4-91.2-4.2-163.9-79.3-163.9-171.5z"/>
  <path d="M419.7 247.8c0 92.2-72.7 167.3-163.9 171.5 2.7.1 5.3.4 8 .4 94.9 0 171.9-77 171.9-171.9s-77-171.9-171.9-171.9c-2.7 0-5.3.3-8 .4 91.1 4.3 163.9 79.3 163.9 171.5z"/>
  <path d="M263.8 115.9c72.8 0 131.9 59.1 131.9 131.9 0 72.8-59.1 131.9-131.9 131.9-72.8 0-131.9-59.1-131.9-131.9 0-72.8 59.1-131.9 131.9-131.9z" fill="#ccd1d9"/>
  <path d="M147.9 247.8c0-70.1 54.8-127.3 123.9-131.5-2.7-.2-5.3-.4-8-.4-72.8 0-131.9 59.1-131.9 131.9 0 72.8 59.1 131.9 131.9 131.9 2.7 0 5.3-.2 8-.4-69.1-4.1-123.9-61.3-123.9-131.5z" opacity=".1"/>
  <path class="st1" d="M379.7 247.8c0 70.1-54.8 127.3-123.9 131.5 2.7.2 5.3.4 8 .4 72.8 0 131.9-59.1 131.9-131.9 0-72.8-59.1-131.9-131.9-131.9-2.7 0-5.3.2-8 .4 69.1 4.2 123.9 61.4 123.9 131.5z" opacity=".5"/>
  <g>
    <path class="st7" d="M4 175.9c-2.2 0-4-1.8-4-4V100c0-2.2 1.8-4 4-4s4 1.8 4 4v71.9c0 2.2-1.8 4-4 4z"/>
    <path class="st7" d="M20 167.9c-2.2 0-4-1.8-4-4V100c0-2.2 1.8-4 4-4s4 1.8 4 4v63.9c0 2.2-1.8 4-4 4z"/>
    <path class="st7" d="M36 167.9c-2.2 0-4-1.8-4-4V100c0-2.2 1.8-4 4-4s4 1.8 4 4v63.9c0 2.2-1.8 4-4 4z"/>
    <path class="st7" d="M52 175.9c-2.2 0-4-1.8-4-4V100c0-2.2 1.8-4 4-4s4 1.8 4 4v71.9c0 2.2-1.8 4-4 4z"/>
    <path class="st7" d="M28 199.9c-3.3 0-6.5-.6-9.4-1.7C7.5 194.4 0 183.8 0 171.9c0-2.2 1.8-4 4-4s4 1.8 4 4c0 8.5 5.3 16 13.3 18.8 4.3 1.7 9.2 1.6 13.3.1C42.7 188 48 180.5 48 172c0-2.2 1.8-4 4-4s4 1.8 4 4c0 11.9-7.5 22.5-18.7 26.3-2.8 1-6 1.6-9.3 1.6z"/>
    <path class="st7" d="M20 391.7c-2.2 0-4-1.8-4-4V194.4c0-2.2 1.8-4 4-4s4 1.8 4 4v193.3c0 2.2-1.8 4-4 4z"/>
    <path class="st7" d="M475.6 391.7c-2.2 0-4-1.8-4-4V100c0-2.2 1.8-4 4-4s4 1.8 4 4v287.8c0 2.1-1.8 3.9-4 3.9z"/>
    <path class="st7" d="M36 391.7c-2.2 0-4-1.8-4-4V194.4c0-2.2 1.8-4 4-4s4 1.8 4 4v193.3c0 2.2-1.8 4-4 4z"/>
    <path class="st7" d="M28 399.7c-6.6 0-12-5.4-12-12 0-2.2 1.8-4 4-4s4 1.8 4 4 1.8 4 4 4 4-1.8 4-4 1.8-4 4-4 4 1.8 4 4c0 6.6-5.4 12-12 12z"/>
    <path class="st7" d="M483.6 399.7c-6.6 0-12-5.4-12-12 0-2.2 1.8-4 4-4s4 1.8 4 4 1.8 4 4 4 4-1.8 4-4 1.8-4 4-4 4 1.8 4 4c0 6.6-5.4 12-12 12z"/>
    <path class="st7" d="M491.6 391.7c-2.2 0-4-1.8-4-4V235.8c0-2.2 1.8-4 4-4s4 1.8 4 4v151.9c0 2.2-1.8 4-4 4z"/>
    <path class="st7" d="M507.6 143.9c-2.2 0-4-1.8-4-4 0-28.4-27.8-35.8-29-36.1-2.1-.5-3.4-2.7-2.9-4.9s2.7-3.4 4.8-2.9c.4.1 35 9.1 35 43.8.1 2.3-1.7 4.1-3.9 4.1z"/>
    <path class="st7" d="M507.6 239.8c-2.2 0-4-1.8-4-4v-95.9c0-2.2 1.8-4 4-4s4 1.8 4 4v95.9c0 2.3-1.8 4-4 4z"/>
    <path class="st7" d="M507.6 239.8h-16c-2.2 0-4-1.8-4-4s1.8-4 4-4h16c2.2 0 4 1.8 4 4s-1.8 4-4 4z"/>
    <path class="st7" d="M263.8 423.7c-97 0-175.9-78.9-175.9-175.9S166.8 72 263.8 72s175.9 78.9 175.9 175.9-78.9 175.8-175.9 175.8zm0-343.7c-92.6 0-167.9 75.3-167.9 167.9 0 92.6 75.3 167.9 167.9 167.9 92.6 0 167.9-75.3 167.9-167.9 0-92.6-75.3-167.9-167.9-167.9z"/>
    <path class="st7" d="M263.8 383.7c-74.9 0-135.9-61-135.9-135.9s61-135.9 135.9-135.9 135.9 61 135.9 135.9c0 75-61 135.9-135.9 135.9zm0-263.8c-70.5 0-127.9 57.4-127.9 127.9s57.4 127.9 127.9 127.9 127.9-57.4 127.9-127.9-57.4-127.9-127.9-127.9z"/>
  </g>
</svg>