<svg id="Слой_1" xmlns="http://www.w3.org/2000/svg" viewBox="0 0 512 512">
  <style>
    .st0{opacity:.4}.st0,.st1{fill:#473100}
  </style>
  <path class="st0" d="M256 41.3c-44.6 0-87.3 13.6-123.7 39.3-35.5 25.1-62.3 59.8-77.5 100.3-1.5 3.9.5 8.2 4.4 9.7s8.2-.5 9.7-4.4C97.9 108.5 173.1 56.3 256 56.3c110.1 0 199.7 89.6 199.7 199.7S366.1 455.7 256 455.7 56.3 366.1 56.3 256c0-12.1 1.1-24.3 3.3-36.2.8-4.1-1.9-8-6-8.7-4.1-.7-8 1.9-8.7 6-2.3 12.7-3.5 25.8-3.5 38.9 0 118.4 96.3 214.7 214.7 214.7S470.7 374.4 470.7 256 374.4 41.3 256 41.3z"/>
  <path class="st0" d="M437 75C388.7 26.6 324.4 0 256 0S123.3 26.6 75 75 0 187.6 0 256s26.6 132.7 75 181 112.6 75 181 75 132.7-26.6 181-75 75-112.6 75-181-26.6-132.7-75-181zm-10.6 351.4C380.9 471.9 320.4 497 256 497s-124.9-25.1-170.4-70.6C40.1 380.9 15 320.4 15 256S40.1 131.1 85.6 85.6C131.1 40.1 191.6 15 256 15s124.9 25.1 170.4 70.6c45.5 45.5 70.6 106 70.6 170.4s-25.1 124.9-70.6 170.4z"/>
  <path class="st1" d="M334.4 104c-39.4 0-71.5 32.1-71.5 71.5 0 13.1 3.5 25.8 10.2 36.9-3.4 5.1-5.5 11.2-5.5 17.8 0 17.6 14.3 31.9 31.9 31.9 17.6 0 31.9-14.3 31.9-31.9s-14.3-31.9-31.9-31.9c-5.5 0-10.6 1.4-15.1 3.8-4.3-8.1-6.6-17.2-6.6-26.5 0-31.2 25.3-56.5 56.5-56.5s56.5 25.3 56.5 56.5c0 22.6-13.4 43-34.2 51.9-3.8 1.6-5.6 6-3.9 9.9 1.2 2.8 4 4.5 6.9 4.5 1 0 2-.2 3-.6 26.3-11.3 43.3-37.1 43.3-65.7 0-39.5-32-71.6-71.5-71.6zm-17.8 126.2c0 9.3-7.6 16.9-16.9 16.9-9.3 0-16.9-7.6-16.9-16.9s7.6-16.9 16.9-16.9c9.3 0 16.9 7.6 16.9 16.9z"/>
  <path class="st1" d="M363.6 289.1c-8.6 0-16.8 2.2-24 6.2-11.8-8-25.5-12.2-40-12.2-39.4 0-71.5 32.1-71.5 71.5s32.1 71.5 71.5 71.5c27.8 0 53.2-16.4 64.8-41.3 12.6-.4 22.7-10.8 22.7-23.5V347h8.5c5.4 0 10.4-2.5 13.6-6.8 3.2-4.3 4.2-9.6 2.7-14.7-6-21.4-25.9-36.4-48.3-36.4zm-64 121.9c-31.2 0-56.5-25.3-56.5-56.5s25.3-56.5 56.5-56.5c9.7 0 19 2.4 27.3 7-5.4 5.7-9.5 12.7-11.7 20.5-1.5 5.1-.5 10.4 2.7 14.7 3.3 4.3 8.2 6.8 13.6 6.8h8.5v14.2c0 7.9 3.9 14.9 9.8 19.1-9.5 18.6-28.9 30.7-50.2 30.7zm97.8-79.8c-.2.2-.7.8-1.6.8h-16c-4.1 0-7.5 3.4-7.5 7.5v21.7c0 4.7-3.8 8.6-8.6 8.6s-8.6-3.8-8.6-8.6v-21.7c0-4.1-3.4-7.5-7.5-7.5h-16c-.9 0-1.4-.6-1.6-.8-.2-.3-.5-.8-.3-1.5 4.3-15.1 18.3-25.6 34-25.6s29.7 10.5 34 25.6c.2.6-.1 1.1-.3 1.5z"/>
  <path class="st1" d="M198.2 326.7c-.7-5.3-3.8-9.8-8.4-12.3-19.5-10.8-44.2-7.3-60 8.5-15.8 15.8-19.3 40.5-8.5 60 2.6 4.6 7 7.7 12.3 8.4 5.4.8 10.6-1 14.4-4.8l6-6 10 10c4.6 4.6 10.6 6.9 16.7 6.9 6 0 12.1-2.3 16.7-6.9 4.4-4.4 6.9-10.4 6.9-16.7 0-6.3-2.4-12.2-6.9-16.7l-10-10 6-6c3.8-3.8 5.6-9 4.8-14.4zm-8.9 47.2c0 2.3-.9 4.4-2.5 6.1-3.3 3.3-8.8 3.3-12.1 0l-15.3-15.3c-1.5-1.5-3.4-2.2-5.3-2.2s-3.8.7-5.3 2.2L137.5 376c-.6.6-1.4.6-1.7.6-.4-.1-.9-.3-1.3-.9-7.6-13.7-5.1-31 6-42.1s28.4-13.6 42.1-6c.6.3.8.9.9 1.3 0 .3.1 1.1-.6 1.7l-11.3 11.3c-1.4 1.4-2.2 3.3-2.2 5.3s.8 3.9 2.2 5.3l15.3 15.3c1.5 1.6 2.4 3.8 2.4 6.1z"/>
  <path class="st1" d="M88.6 265c0 17.6 14.3 31.9 31.9 31.9 10.4 0 19.6-5 25.5-12.7 11.2 6.9 24.3 10.6 37.5 10.6 39.4 0 71.5-32.1 71.5-71.5 0-37.2-28.6-68.1-65.5-71.2-2.4-4.9-5.6-9.5-9.6-13.5-15.8-15.8-40.5-19.3-60-8.5-4.6 2.6-7.7 7-8.4 12.3-.8 5.4 1 10.6 4.8 14.4l6 6-10 10c-4.4 4.4-6.9 10.4-6.9 16.7s2.5 12.2 6.9 16.7c.5.5.9.9 1.4 1.3-1.2 5.1-1.7 10.4-1.7 15.7 0 3.6.3 7.1.8 10.6-13.9 3.7-24.2 16.3-24.2 31.2zm34.4-81.3l15.3-15.3c1.4-1.4 2.2-3.3 2.2-5.3s-.8-3.9-2.2-5.3L127 146.4c-.6-.6-.6-1.4-.6-1.7.1-.4.3-.9.9-1.3 5.3-2.9 11.2-4.4 17-4.4 9.2 0 18.3 3.6 25.1 10.3 11.1 11.1 13.6 28.4 6 42.1-.3.6-.9.8-1.3.9-.3 0-1.1.1-1.7-.6L161 180.5c-2.9-2.9-7.7-2.9-10.6 0l-15.3 15.3c-3.3 3.3-8.8 3.3-12.1 0-1.6-1.6-2.5-3.8-2.5-6.1s.9-4.4 2.5-6zm6 29.6c6.3 0 12.2-2.4 16.7-6.9l10-10 6 6c3.8 3.8 9.1 5.6 14.4 4.8 5.3-.7 9.8-3.8 12.3-8.4 5.3-9.6 7.1-20.4 5.8-30.8 26.2 5 45.8 28.1 45.8 55.5 0 31.2-25.3 56.5-56.5 56.5-11.4 0-22.2-3.3-31.5-9.6.3-1.7.4-3.5.4-5.3 0-15-10.4-27.7-24.5-31.1-.7-3.5-1-7-1-10.5 0-3.4.3-6.8.9-10.2h1.2zm-8.4 34.8c9.3 0 16.9 7.6 16.9 16.9 0 9.3-7.6 16.9-16.9 16.9s-16.9-7.6-16.9-16.9c-.1-9.3 7.5-16.9 16.9-16.9z"/>
  <path class="st1" d="M288 337.8c-17.6 0-31.9 14.3-31.9 31.9 0 4.1 3.4 7.5 7.5 7.5s7.5-3.4 7.5-7.5c0-9.3 7.6-16.9 16.9-16.9 9.3 0 16.9 7.6 16.9 16.9 0 9.3-7.6 16.9-16.9 16.9-4.1 0-7.5 3.4-7.5 7.5s3.4 7.5 7.5 7.5c17.6 0 31.9-14.3 31.9-31.9 0-17.6-14.3-31.9-31.9-31.9z"/>
  <path class="st1" d="M235.6 95.6c-17.6 0-31.9 14.3-31.9 31.9s14.3 31.9 31.9 31.9c17.6 0 31.9-14.3 31.9-31.9s-14.2-31.9-31.9-31.9zm0 48.9c-9.3 0-16.9-7.6-16.9-16.9s7.6-16.9 16.9-16.9c9.3 0 16.9 7.6 16.9 16.9s-7.5 16.9-16.9 16.9z"/>
  <path class="st1" d="M438.1 256c0-17.6-14.3-31.9-31.9-31.9s-31.9 14.3-31.9 31.9 14.3 31.9 31.9 31.9c17.6 0 31.9-14.3 31.9-31.9zm-31.9 16.9c-9.3 0-16.9-7.6-16.9-16.9 0-9.3 7.6-16.9 16.9-16.9s16.9 7.6 16.9 16.9c0 9.3-7.6 16.9-16.9 16.9z"/>
</svg>