<svg xmlns="http://www.w3.org/2000/svg" viewBox="0 0 511 511">
  <path d="M433.8 43.9C378.4 13.8 315.7-1.3 252.6.1 191 1.5 130.2 18.5 77 49.4c-25.7 14.9-36.1 46.7-24.1 73.9l66.7 150.9c0 .1.1.2.1.3l40.2 91.1v.1l50.6 114.5c8.4 19 26.4 30.8 47.2 30.8h.3c20.9-.1 38.9-12.1 47.1-31.3L459.7 118c11.9-27.8.8-59.7-25.9-74.1zM92 75.3C140.9 47 196.7 31.3 253.3 30c2.5-.1 4.9-.1 7.3-.1 55.4 0 110.2 13.9 158.9 40.3 13 7 18.4 22.5 12.6 36l-8.8 20.5C370.6 100.4 312 87.3 253.1 88.6c-57.2 1.3-113.6 16.1-164 42.9l-8.9-20.2c-5.7-13.3-.7-28.7 11.8-36zm60.1 198.6c4.8-2.2 10.1-3.4 15.5-3.4 20.6 0 37.4 16.8 37.4 37.4 0 15.3-9.3 28.7-22.7 34.4l-30.2-68.4zm125.5 194c-3.5 8.2-10.9 13.1-19.8 13.1-8.9.1-16.3-4.8-19.9-12.9l-43.5-98.4c24.1-10.4 40.6-34.3 40.6-61.8 0-37.1-30.2-67.3-67.3-67.3-9.6 0-19 2.1-27.6 5.9L101.4 159c46.7-25.3 99.2-39.2 152.5-40.4 54.7-1.2 109 11.1 157.8 35.7l-78.3 183.1c-17.5-6.6-37.9-2.6-51.8 11.3-9.3 9.3-14.4 21.6-14.4 34.6 0 13.1 5.1 25.4 14.4 34.6 3.9 3.9 8.4 7.1 13.3 9.5l-17.3 40.5zm29.1-68c-1.4-.8-2.8-1.8-3.9-3-3.6-3.6-5.6-8.4-5.6-13.5s2-9.9 5.6-13.5c5.1-5.1 12.3-6.7 18.8-4.8l-14.9 34.8z" fill="#473100"/>
  <path d="M354.5 211.6c0-34.7-28.2-62.8-62.8-62.8-34.6 0-62.8 28.2-62.8 62.8 0 34.6 28.2 62.8 62.8 62.8 34.6 0 62.8-28.2 62.8-62.8zm-95.7 0c0-18.1 14.8-32.9 32.9-32.9 18.1 0 32.9 14.8 32.9 32.9 0 18.1-14.8 32.9-32.9 32.9-18.2-.1-32.9-14.8-32.9-32.9z" opacity=".4" fill="#473100"/>
</svg>