<svg id="Layer_1" xmlns="http://www.w3.org/2000/svg" viewBox="0 0 300 300">
  <style>
    .st1{fill:#f8f8f8}
  </style>
  <circle cx="178.5" cy="160.4" r="109.5" fill="#fdd692"/>
  <circle class="st1" cx="150.4" cy="110.6" r="24.1"/>
  <path class="st1" d="M150 0C67.2 0 0 67.2 0 150s67.2 150 150 150 150-67.2 150-150S232.8 0 150 0zm-.3 68.7h.6c25.3.4 45.8 21.3 45.8 46.6 0 30.9-33 62.2-46.1 73.4-.9-.8-1.8-1.6-2.9-2.5-14.5-12.9-43.2-42-43.2-70.9 0-25.3 20.5-46.2 45.8-46.6zm.9 163.5c-27.7 0-55.7-7.9-55.7-23.1 0-10.6 13.8-17.7 31.6-21 3.4 3.5 6.7 6.5 9.5 9-19.4 2.2-30.7 8.3-30.7 11.9 0 4.5 17.2 12.7 45.3 12.7s45.3-8.2 45.3-12.7c0-3.7-11.9-10-31.9-12.1 2.9-2.6 6.2-5.6 9.6-9.1 18.3 3.2 32.7 10.3 32.7 21.2 0 15.3-28 23.2-55.7 23.2z"/>
</svg>